<?xml version="1.0" encoding="utf-8"?>
<!-- Generator: Adobe Illustrator 26.3.1, SVG Export Plug-In . SVG Version: 6.00 Build 0)  -->
<svg version="1.1" id="Layer_1" xmlns="http://www.w3.org/2000/svg" xmlns:xlink="http://www.w3.org/1999/xlink" x="0px" y="0px"
	 viewBox="0 0 1024 1024" style="enable-background:new 0 0 1024 1024;" xml:space="preserve">
<style type="text/css">
	.st0{fill:#FFECD2;}
	.st1{fill:#D7F2D6;}
	.st2{fill:#BFD6BD;}
	.st3{fill:#8CB5B0;}
	.st4{fill:#FFFDFE;}
	.st5{fill:#71706F;}
	.st6{fill:#FCB835;}
	.st7{fill:#F34E88;}
	.st8{fill:#E0DCDA;}
	.st9{fill:#E84986;}
	.st10{fill:#FCBF3E;}
	.st11{fill:#FFCC71;}
	.st12{fill:#FFFFFF;}
	.st13{fill:#F7F4F6;}
	.st14{fill:#FA4C95;}
	.st15{fill:#050505;}
	.st16{fill:#0E0E0E;}
	.st17{fill:#FBA629;}
	.st18{fill:#F4E9D4;}
	.st19{fill:#F9912B;}
	.st20{fill:#E5428C;}
	.st21{fill:#374C37;}
</style>
<rect x="-0.47" y="0.12" class="st0" width="1024" height="1024"/>
<ellipse class="st1" cx="373.83" cy="941.39" rx="367.46" ry="77.16"/>
<ellipse class="st2" cx="384.75" cy="950" rx="327.19" ry="51.9"/>
<ellipse class="st1" cx="680.37" cy="477.27" rx="276.73" ry="77.16"/>
<ellipse class="st2" cx="675.75" cy="474.21" rx="247.47" ry="62.31"/>
<path class="st3" d="M595.69,619.48c-0.08-1.08-0.13-2.17-0.26-3.24c-1-8.15,0.05-15.97,2.31-23.58c1.18-3.97,3.12-7.31,5.67-10.04
	c3.77-4.05,7.03-3.43,9.74,1.92c2.23,4.41,3.3,9.3,3.44,14.55c0.32,11.46-2.04,21.85-7.41,31.12c-1.71,2.96-3.31,6.04-4.79,9.2
	c-0.54,1.15-1.05,2.89-0.76,4.02c1.42,5.5,3.11,10.89,5.01,17.37c0.73-2.83,1.16-4.46,1.58-6.1c2.61-10.37,7.25-18.95,13.91-25.74
	c1.32-1.35,2.79-2.36,4.5-1.39c1.73,0.99,2.09,3.11,2.12,5.25c0.15,9.46-1.55,18.26-6.74,25.28c-3.25,4.4-6.92,8.33-10.61,12.15
	c-1.5,1.55-2.01,2.81-1.54,5.22c1.37,7,2.54,14.06,3.82,21.09c0.14,0.78,0.48,1.5,0.85,2.6c1.49-6.06,2.73-11.6,4.21-17.04
	c2.31-8.51,6.73-14.97,12.62-19.75c4.91-3.98,9.81-1.72,11.75,5.3c0.49,1.78,0.88,3.79,0.76,5.64c-0.27,4.28-0.52,8.67-1.44,12.77
	c-1.65,7.32-3.79,14.47-5.8,21.97c2.34-1.6,4.61-3.22,6.93-4.71c3.19-2.04,6.52-3.45,10.15-2.67c6.59,1.41,9.67,9.16,6.44,16.61
	c-1.13,2.61-2.75,5-4.49,7.02c-3.94,4.59-8.79,6.8-14.06,7.21c-5.26,0.41-10.53,0.43-15.79,0.74c-2.47,0.15-4.94,0.57-7.55,0.89
	c0.34,8.48,0.8,16.44,0.93,24.42c0.14,8.13-0.04,16.26-0.08,24.62c0.46-0.38,0.85-0.54,1.03-0.87c0.64-1.18,1.24-2.41,1.82-3.64
	c5.49-11.63,12.95-20.31,22.99-25.13c3.35-1.61,6.67-1.35,9.86,0.65c3.47,2.17,4.69,5.32,4.05,10.21c-0.61,4.72-2.09,9-4.81,12.27
	c-2.54,3.06-5.19,6.16-8.19,8.36c-4.22,3.1-8.74,5.58-13.25,7.98c-4.85,2.59-9.82,4.78-14.69,7.12
	c-1.89,13.07-3.77,26.05-5.65,39.05c0.3,0.05,0.45,0.13,0.5,0.07c0.46-0.54,0.93-1.08,1.34-1.68c4.18-6.11,9.11-11.08,14.7-14.8
	c3.18-2.12,6.66-3.85,10.16-4.79c5.09-1.37,9.72,0.53,13.31,5.6c3.39,4.79,3.52,9.92,0.12,14.63c-1.59,2.21-3.52,4.13-5.51,5.74
	c-5.31,4.3-11.25,6.15-17.45,7c-5.86,0.81-11.7,1.8-17.54,2.72c-2.38,0.37-3.56,2.05-4.38,5.03c-2.6,9.52-5.53,18.9-8.32,28.34
	c-0.38,1.3-0.77,2.59-1.33,4.47c8.67-3.79,16.25-8.56,22.62-16.11c6.4-7.58,13.49-13.9,21.59-18.11c3.68-1.92,7.68-2.46,10.96,1.46
	c3.43,4.1,3.27,9.28,1.61,14.24c-1.16,3.47-2.76,6.89-4.72,9.71c-8.25,11.86-19.29,16.9-31.09,19.6c-3.75,0.86-7.67,0.45-11.86,0.63
	c1.03,1.38,2.01,2.39,2.7,3.66c1.71,3.14,3.46,6.27,4.85,9.64c1.13,2.74,1.71,6.08-0.27,8.54c-2.15,2.68-4.7,1.32-7.01-0.11
	c-3.94-2.44-6.29-6.79-8.18-11.57c-1.55-3.94-2.87-8.03-4.42-12.42c-0.45,0.75-0.8,1.17-1,1.69c-6.58,17.01-14.2,33.2-23.66,47.89
	c-1.66,2.58-3.55,4.96-5.51,7.18c-1.12,1.27-2.53,2.33-4.47,1.83c4.29-6.89,8.36-13.36,12.37-19.9
	c6.92-11.3,12.12-23.94,17.32-36.58c0.57-1.38,1.26-2.8,0.36-4.46c-8.06-0.37-14.4-5.1-19.64-12.54
	c-5.43-7.72-9.63-16.52-12.15-26.33c-1.22-4.76-1.5-10.07-1.52-15.14c-0.02-6.02,3.09-9.21,7.81-9.3c5.27-0.1,9.31,2.6,11.77,8.51
	c1.53,3.66,3.07,7.47,3.83,11.45c2.58,13.39,8.1,25.03,13.21,38.09c4.46-12.76,8.87-24.67,11.37-37.58
	c-3.57-3.2-7.08-6.24-10.51-9.41c-6.81-6.29-13.54-12.74-20.39-18.95c-5.46-4.95-7.36-11.74-7.23-19.98
	c0.11-7.16,6.91-15.8,11.57-16.54c1.8-0.28,3.8-0.16,5.5,0.57c6.08,2.58,10.05,8.3,12.89,15.35c3.97,9.87,7.17,20.13,8.92,31.06
	c0.13,0.78,0.49,1.51,0.75,2.26c0.26-0.02,0.52-0.04,0.78-0.06c1.59-10.84,3.08-21.72,4.81-32.52c0.86-5.35-0.42-9.07-3.71-12.5
	c-8.12-8.47-14.95-18.48-20.6-29.79c-2.25-4.49-2.94-9.12-1.64-14.2c1.57-6.14,6.39-9.34,11.11-7.01c1.81,0.89,3.54,2.47,4.93,4.23
	c5.17,6.51,8.62,14.51,11.57,22.89c0.54,1.54,1.09,3.07,1.89,5.3c0.22-1.34,0.38-1.8,0.37-2.25c-0.29-12-0.55-24.01-0.94-36
	c-0.09-2.82-2.87-5.85-5.14-6.37c-3.45-0.78-6.91-1.61-10.33-2.57c-10.6-2.98-18.19-11.07-23.58-22.84
	c-2.18-4.76-3.08-9.81-1.85-15.23c1.02-4.49,3.2-6.29,6.8-5.55c3.7,0.76,6.96,2.8,9.57,6.24c4.02,5.29,8.04,10.6,11.86,16.11
	c3.72,5.36,7.2,10.99,10.86,16.6c0.52-7.44-5.22-44.46-8.48-54.48c-1.51-0.28-3.21-0.8-4.93-0.88c-5.26-0.26-10.55-0.04-15.79-0.58
	c-9.56-0.98-16.52-7.01-20.31-18.47c-1.79-5.41-0.76-11.06,2.71-15.39c3.56-4.45,7.01-5.19,11.66-2.45
	c1.14,0.67,2.34,1.31,3.29,2.31c6.07,6.39,13.21,11.24,17.63,20.01c0.6,1.18,1.49,2.13,2.24,3.19c0.32-1.12,0.22-1.74,0.04-2.32
	c-4.23-14.25-8.9-28.22-15.3-41.18c-1.46-2.95-3.03-4.07-5.76-4.1c-5-0.06-10-0.59-14.97-1.31c-1.93-0.28-3.92-1.32-5.62-2.59
	c-2.67-1.99-2.92-5.67-0.81-8.58c2.01-2.77,4.68-3.64,7.51-3.72c1.33-0.04,2.67,0.23,4.51,0.4c-0.88-1.32-1.42-2.13-1.96-2.94
	c-2.18-3.3-4.76-6.3-6.47-9.97c-3.61-7.74-3.62-15.94-0.04-23.75c1.97-4.29,5.19-6.46,9.24-5.87c3.78,0.55,6.17,3.48,7.39,7.86
	c1,3.61,1.97,7.31,2.41,11.08c0.9,7.76,1.23,15.64,2.2,23.38c0.68,5.35,1.55,10.84,3.27,15.74c1.43,4.09,4.22,7.41,6.4,11.07
	C595.29,619.68,595.49,619.58,595.69,619.48z M599.31,817.43c-1.34-3.79-2.7-7.57-4.24-11.23c-1.68-3.99-3.94-7.4-6.97-9.89
	c-6.13-5.05-14.35-0.78-15.8,8.44c-1.1,6.99,0.48,13.04,5.1,17.38c7.47,7.01,14.99,13.91,22.51,20.82c1.6,1.47,3.31,2.77,4.97,4.15
	c0.23-0.25,0.46-0.5,0.7-0.75C604.27,836.45,602.57,826.67,599.31,817.43z M628.02,894.93c5.45-2.45,10.83-5.11,15.58-9.45
	c3.81-3.49,7.38-7.33,9.3-12.94c0.78-2.28,1.29-4.91,1.27-7.38c-0.04-3.87-1.83-5.93-4.85-5.8c-1.83,0.08-3.8,0.55-5.43,1.57
	c-5.75,3.61-11.29,7.7-15.99,13.37c-6.93,8.37-14.87,14.64-23.78,18.95c-0.44,0.21-0.85,0.5-2.05,1.21
	C611.3,898.25,619.66,898.69,628.02,894.93z M628.85,715.27c3.53-3.74,6.32-8.37,7.93-13.82c2.04-6.87,3.88-13.87,5.29-20.99
	c0.65-3.28,0.5-7.05-0.01-10.41c-0.85-5.59-3.78-6.87-7.47-3.71c-4.7,4.02-8.21,9.25-10.39,16.01c-3.24,10.07-5.02,20.42-4.48,31.36
	c0.16,3.16,0.15,6.33,0.23,10.25C623.31,720.71,626.16,718.12,628.85,715.27z M589.69,886.92c-5.11-10.73-8.52-22.35-11.44-34.28
	c-0.84-3.45-2.29-6.73-3.81-9.81c-1.85-3.75-4.83-4.86-8.19-4.32c-3.18,0.51-4.21,1.85-4.22,5.88c0,2.54,0.03,5.17,0.51,7.62
	c2.79,14.38,8.4,26.6,17.7,35.68c2.04,1.99,4.6,3.19,7.03,4.43c1.17,0.6,2.57,0.45,4.63,0.75
	C590.87,890.07,590.39,888.4,589.69,886.92z M631.32,789.17c3.96-1.99,8-3.9,11.7-6.55c3.57-2.55,6.86-5.82,10.07-9.1
	c2.53-2.59,3.72-6.41,4.43-10.37c0.61-3.38-0.13-5.08-2.63-6.44c-2.56-1.39-5.15-1.31-7.69,0.08c-7.33,4-13.34,10.13-17.96,18.4
	c-2.91,5.21-5.61,10.62-8.39,15.95c-0.26,0.49-0.39,1.09-0.58,1.64c0.17,0.36,0.33,0.73,0.5,1.09
	C624.28,792.31,627.85,790.91,631.32,789.17z M635.4,844.97c5.69-0.96,10.83-4,15.19-8.81c4.14-4.56,3.87-8.99-0.67-12.89
	c-3.61-3.09-7.62-3.24-11.53-1.36c-7.38,3.54-13.78,9.04-18.98,16.68c-1.88,2.76-3.71,5.55-6.19,9.26
	C621.23,846.83,628.34,846.15,635.4,844.97z M587.4,642.9c-2.78-2.13-5.15-5.13-7.94-7.26c-4.89-3.74-10.08-0.88-11.08,6.23
	c-0.32,2.3,0.2,5.14,1.02,7.31c3.31,8.66,9.06,13.13,16.45,13.88c5.34,0.54,10.72,0.43,17.05,0.65
	C597.83,655.66,593.86,647.84,587.4,642.9z M616.09,787.2c-0.85-4.66-1.65-9.39-2.96-13.86c-2.21-7.54-5.35-14.51-9.46-20.64
	c-1.44-2.15-3.22-4.08-5.12-5.53c-2.74-2.09-5.43-0.86-6.93,2.77c-1.23,2.97-1.72,6.18-0.33,9.2c6.02,13.14,13.9,24.18,23.28,33.69
	C616.53,791.08,616.43,789.02,616.09,787.2z M609.74,620.78c3.84-10.12,5.21-20.75,1.62-31.56c-2.03-6.12-4.17-6.42-7.59-1.27
	c-3.56,5.37-4.74,11.93-5.35,18.69c-0.63,6.92,1.32,20.52,4.1,28.41C605.15,629.92,607.9,625.63,609.74,620.78z M609.38,721.31
	c-5.86-8.54-11.71-17.1-17.7-25.5c-2.28-3.19-4.88-6.01-8.37-6.98c-2.92-0.81-4.2-0.03-4.35,3.7c-0.11,2.77,0.04,5.96,1,8.33
	c4.37,10.73,10.51,19.08,20.17,22.05c3.62,1.11,7.22,2.3,10.83,3.46c0.16-0.38,0.32-0.77,0.48-1.16
	C610.76,723.91,610.19,722.48,609.38,721.31z M640.81,727.52c5.05-0.32,10.06-1.37,14.03-5.82c1.75-1.96,3.41-4.32,4.51-6.91
	c1.87-4.42,0.08-8.72-3.78-9.83c-2.54-0.73-5.04-0.25-7.26,1.45c-5.79,4.42-11.57,8.89-17.26,13.51c-2.82,2.29-5.45,4.96-8.17,7.45
	c0.1,0.25,0.21,0.5,0.31,0.74C629.07,727.94,634.95,727.9,640.81,727.52z M580.79,577.23c-0.77-6.11-1.77-12.3-3.51-18.04
	c-1.68-5.56-6.72-6-9.75-1.38c-0.85,1.31-1.59,2.97-1.88,4.61c-1.16,6.67-0.83,13.04,2.98,18.45c1.42,2.02,2.83,4.05,4.24,6.08
	c3.3,4.72,6.61,9.44,10.03,14.34C582.21,593.06,581.78,585.09,580.79,577.23z M622.31,654.2c4.09-5.96,5.82-15.01,4.75-21.88
	c-6.92,3.25-15.19,21.47-14.61,34.25C615.75,662.47,619.28,658.61,622.31,654.2z M601.17,899.9c1.59,11.38,7.07,20.07,12.93,20.66
	C612.86,910.58,607.06,905.71,601.17,899.9z M580.18,605.37c-3.21-3.86-6.32-7.76-10.96-8.34c-2.57-0.32-4.95,0.02-6.78,3.74
	C568.08,605.08,574.24,604.44,580.18,605.37z"/>
<path class="st3" d="M187.45,672c0.57-6.82,2.87-12.7,5.15-18.69c1.61-4.24,2.37-8.85,3.06-13.36c1.16-7.61,3.7-14.59,7.48-21.32
	c2.6-4.63,4.77-9.72,5.96-14.88c2.34-10.15,6.78-18.58,15.44-24.76c3.37-2.4,6.05-5.76,9.06-8.67c1.14-1.1,2.24-2.31,3.57-3.15
	c0.71-0.45,2.21-0.62,2.73-0.18c0.76,0.65,1.31,1.95,1.32,2.98c0.02,1.12-0.69,2.26-1.07,3.39c-2.16,6.43-4.76,12.75-6.35,19.31
	c-1.35,5.56-1.64,11.39-2.19,17.12c-0.74,7.73-1.02,15.5-1.98,23.2c-0.8,6.51-3.86,12.05-8.69,16.66
	c-6.66,6.37-12.39,13.42-16.55,21.81c-3.3,6.66-3.27,13.91-4.97,20.84c-0.25,1.03,0.94,2.52,1.67,3.67
	c7.36,11.7,15.8,22.52,25.88,32.04c3.57,3.37,7.16,6.81,9.54,11.93c-3.79,0.65-6.05-1.16-8.18-3.19
	c-12.77-12.15-24.53-25.19-33.25-40.6c-2.57-4.55-6.37-7.82-10.27-10.39c-7.52-4.96-14.89-10.85-24.73-10.96
	c-3.17-0.04-6.33-0.79-9.5-1.18c-8.38-1.05-15.01-5.2-20.18-11.72c-3.47-4.38-6.62-9-10.03-13.42c-5.85-7.56-11.79-15.05-17.7-22.56
	c-0.61-0.78-1.58-1.42-1.86-2.3c-0.33-1.02-0.51-2.52,0.02-3.26c0.51-0.71,2.11-1.14,3.06-0.92c1.92,0.45,3.72,1.4,5.55,2.18
	c9.36,3.95,18.65,8.09,28.1,11.82c8.55,3.38,16.1,8.08,21.55,15.54c3.87,5.3,8.89,8.29,16.19,9.61c-1.03-3.01-1.81-5.56-2.76-8.05
	c-7.45-19.45-17.12-37.74-28-55.51c-5.45-8.91-13.05-12.99-22.87-13.51c-9.55-0.51-17.42-4.3-23.69-11.22
	c-8.44-9.33-13.59-20.6-17.85-32.29c-0.6-1.65-1.28-3.59,0.87-4.75c2-1.09,3.46,0.11,4.67,1.51c4.69,5.42,10.87,8.67,17.06,11.94
	c6.31,3.33,12.56,6.76,19.71,10.61c-0.69-1.86-1.1-3.04-1.56-4.2c-3.05-7.6-6.27-15.13-9.09-22.81c-1.42-3.87-3.43-7.14-6.48-9.87
	c-2.83-2.53-5.57-5.15-8.37-7.71c-7.6-6.96-13.46-15.23-18.1-24.38c-2.92-5.76-4.53-11.9-5.11-18.35
	c-1.17-13.1-1.3-26.32-4.66-39.18c-0.35-1.35,0.84-3.11,1.32-4.68c1.37,0.56,2.74,1.12,4.1,1.69c0.17,0.07,0.31,0.26,0.42,0.42
	c11.83,16.99,26.45,32.03,35.13,51.22c4.45,9.84,6.38,20.1,6.9,30.74c0.15,2.99,0.24,6.01-0.05,8.97
	c-0.76,7.82,1.29,14.98,4.57,21.95c3.22,6.84,6.35,13.72,10.49,20.39c0.61-4.19,0.53-8.63,1.95-12.53
	c5.81-16.02,5.53-32.49,4.56-49.1c-0.22-3.77-0.16-7.59,0.27-11.33c0.17-1.5,1.42-3.65,2.67-4.08c2.36-0.81,3.29,1.55,4.14,3.37
	c0.34,0.72,0.57,1.49,0.85,2.24c4.38,11.57,8.75,23.15,13.16,34.71c3.77,9.86,5.92,19.84,3.32,30.44
	c-1.31,5.36-3.37,10.23-7.13,14.29c-3.24,3.5-5.03,7.54-5.61,12.29c-0.3,2.45-1.41,4.81-2.45,8.18
	c5.84,10.05,12.17,20.96,18.5,31.88c0.26-0.07,0.52-0.14,0.77-0.21c-0.03-1.08,0.02-2.16-0.09-3.23c-3.01-27.93-0.5-55.39,7.1-82.39
	c1.06-3.78,0.92-7.33,0.05-11.16c-1.41-6.21-2.47-12.52-3.24-18.85c-1.29-10.55,1.67-20.34,7.18-29.11
	c5.12-8.14,13.41-12.29,22.46-14.87c5.75-1.64,11.62-2.9,17.24-4.88c4.49-1.58,8.69-3.99,13.02-6.03c0.9-0.42,1.8-0.87,2.74-1.21
	c2.2-0.79,4.63-2.44,6.49,0.22c1.55,2.22-0.19,4.19-1.43,5.95c-1.49,2.12-2.99,4.3-4.83,6.09c-9.71,9.41-16.66,20.85-23.86,32.11
	c-6.24,9.76-12.45,19.38-21.74,26.82c-3.49,2.8-6.33,7.53-7.49,11.91c-3.26,12.33-5.51,24.93-8.11,37.42
	c-0.15,0.69,0.04,1.46,0.12,3.37c4.99-6.65,10.11-11.64,12.43-18.94c3.94-12.38,10.52-23.06,21.17-31.16
	c7.94-6.03,15.43-12.64,24.37-17.23c4.63-2.38,7.43-2.67,8.73-0.54c2.05,3.36-0.6,5.71-2.38,7.93
	c-6.68,8.31-10.65,17.72-12.25,28.23c-1.7,11.21-6.86,20.67-14.39,29.08c-7.06,7.89-15.45,13.09-25.98,14.72
	c-2.56,0.4-5.13,0.84-7.64,1.48c-4.96,1.26-5.37,1.84-5.42,6.94c-0.13,15.02,1.02,29.97,4.36,44.58c2.08,9.09,5.57,17.88,8.59,26.74
	C184.94,667.9,186.35,669.9,187.45,672z M223.38,465.06c-8.54,4.11-16.84,7.45-24.43,11.97c-5.66,3.38-9.85,8.57-10.62,15.79
	c-0.63,5.92-1.65,11.81-2.51,17.7c-0.24,1.68-0.54,3.35-0.86,5.35c5.55-3.24,7.87-5.43,13.54-13.76c6.05-8.9,11.84-17.98,17.8-26.95
	C218.47,471.89,220.8,468.73,223.38,465.06z M182.88,579.67c21.48-1.41,38.46-27.89,37.13-46.31c-8.64,6.2-14.97,14.48-18.2,24.49
	c-2.78,8.62-8.63,14.08-15.36,19.16C185.27,577.91,184.07,578.79,182.88,579.67z M231.43,581.12c-4.95,2.01-5.76,5.4-6.54,8.93
	c-3.35,15.17-4.13,30.79-8.51,45.8c-1.55,5.32-3.52,9.98-7.08,14.22c-3.58,4.25-6.74,8.88-9.79,13.53
	c-1.95,2.97-2.95,6.37-2.48,10.89c2.04-4.08,3.27-7.74,5.46-10.67c4.77-6.35,9.88-12.48,15.16-18.42c3-3.37,5.58-6.8,6.15-11.35
	c0.91-7.3,2.31-14.6,2.35-21.91c0.04-8.29,1-16.29,3.39-24.18C230.12,586.08,230.6,584.16,231.43,581.12z M179.88,574.66
	c7.19-5.15,13.87-9.38,16.91-18.18c3.1-8.95,7.69-17.4,15.76-23.44c3.61-2.7,6.49-6.43,9.42-9.94c1.43-1.72,2.21-3.98,3.29-6
	c-0.36-0.27-0.73-0.54-1.09-0.82c-9.46,7.07-19.12,13.9-26.37,23.51c-1.3,1.72-2.07,3.85-3.09,5.79c-4.74,9.1-6.86,19.6-14.48,27.17
	C180,572.98,180.08,573.5,179.88,574.66z M78.99,455.79c-3.05,22.38,9.49,45.15,25.54,55.3c-3.59-8.28-6.64-16.42-10.58-24.11
	C88.71,476.75,82.21,467.13,78.99,455.79z M222.83,588.23c-5.08,5.04-5.95,6.42-7.63,13.26c-1.95,7.94-4.25,15.61-8.94,22.57
	c-2.47,3.66-3.57,8.37-4.73,12.76c-1.17,4.4-1.67,8.97-2.43,13.48c-0.19,1.14-0.29,2.3-0.57,4.67c4.17-5.31,8.47-9.07,10.53-13.82
	c2.97-6.85,4.46-14.37,6.3-21.67c1.11-4.41,1.51-8.99,2.58-13.41C219.26,600.5,220.94,595.01,222.83,588.23z M110.61,507.82
	c-0.21-24.47-13.67-42.54-28.63-59.93c0.01,1.89,0.71,3.49,1.2,5.16c3.74,12.82,11.5,23.64,17.54,35.32
	C104.07,494.83,107.32,501.34,110.61,507.82z M139.88,571.19c3.87-11.4,7.09-22.16,8.26-33.44c0.33-3.16,1.38-6.4,0.95-9.45
	c-1.04-7.4-2.76-14.71-4.2-22.05c-0.86,3.01-0.94,5.95-0.77,8.88c0.57,9.85-0.59,19.45-3.58,28.86c-1.08,3.4-2.05,6.9-2.51,10.43
	C137.31,559.86,137.24,565.35,139.88,571.19z M118.02,631.78c-0.2,0.35-0.39,0.71-0.59,1.06c3.72,2.47,7.21,5.4,11.2,7.31
	c7.53,3.62,13.64,8.81,19.18,14.91c1.29,1.42,3.01,2.67,4.77,3.39c6.25,2.56,12.59,4.89,18.92,7.25c1.07,0.4,2.24,0.52,3.36,0.77
	c-1.94-2.23-4.1-3.81-6.49-4.4c-5.15-1.27-8.64-4.48-11.99-8.33c-3.24-3.71-6.76-7.32-10.7-10.25
	C137.42,637.37,127.07,636.12,118.02,631.78z M178.13,516.94c1.53-7.11,5.42-13.72,3.6-21.36c-0.3-1.26-0.04-2.84,0.46-4.08
	c4.03-10.17,9.99-18.59,20.87-22.42c2.01-0.71,3.95-1.62,5.92-2.43c-17.37,1.1-27.71,9.68-31.97,25.51
	C174.78,500.46,175.76,508.69,178.13,516.94z M145.58,573.38c13.41-14.77,16.59-28.92,9.87-42.08c-2.81,1.02-3.62,3.08-3.73,5.95
	c-0.37,10.12-1.16,20.19-4.99,29.77C146.04,568.74,146.03,570.73,145.58,573.38z M123.82,642.61c-0.31,0.29-0.62,0.57-0.93,0.86
	c4.78,6.04,9.38,12.24,14.41,18.07c2.89,3.35,6.8,5.64,11.28,6.38c6.17,1.03,12.39,1.81,18.59,2.69c-3.38-2.51-6.88-4.75-10.67-5.47
	c-6.56-1.25-11.1-4.89-15.22-9.78C136.53,649.71,130.4,645.79,123.82,642.61z M128.25,575.66c-6.2-4.24-11.05-8.71-16.78-11.11
	c-4.72-1.99-8.6-4.7-12.48-7.73c-2-1.56-3.91-3.21-6.61-5.44C99.47,568.94,112.83,578.13,128.25,575.66z M105.24,554.56
	c6.19,6.42,10.3,8.81,15.65,9.36C116.38,559.15,110.78,556.81,105.24,554.56z"/>
<g>
	<path class="st4" d="M234.78,928.98c0,0-72.33,8.2-120.78-20.41c-20.86-12.3-37.27-31.42-41.63-60.92
		c-1.91-12.96-2.77-25.45-2.86-37.38c-0.19-21.98,2.28-42.1,5.82-59.9c9.1-45.75,25.19-76,21.16-82.25
		c-6.43-9.98-16.09,5.48-30.55,27.68c-4.23,6.48-10.36,3.99-16.93-2.78c-31.05-31.95-15.95-86.75,26.24-98.86
		c4.34-1.25,8.73-2.12,13.19-2.51c38.61-3.34,73.97,24.94,64.34,69.82c-0.02,0.06-0.02,0.11-0.04,0.17
		c-9.86,45.16-105.88,224.31,56.32,224.27C371.47,885.89,234.78,928.98,234.78,928.98z"/>
</g>
<g>
	<path class="st5" d="M494.9,535.81c-98.77,29.55-76.79-43.42-76.79-43.42s7.93-18.29,26.9-30.97
		c25.32-16.93,18.82,51.51,18.82,51.51C476.2,520.28,486.43,528.08,494.9,535.81z"/>
</g>
<g>
	<path class="st4" d="M684.34,946.96c-12.31,26.62-44.64,17.63-44.64,17.63H478.58c-96.23,24.28-187.99,2.31-187.99,2.31
		s-89.75,8.09-124.46,11.56c-34.69,3.48-30.21-4.61-45.86-13.87c-15.68-9.26-8.96-25.45-8.96-25.45
		c1.13-15.04,21.27-11.58,21.27-11.58c12.31-11.56,27.97,7.09,27.97,7.09l30.22-0.15c-2.94-1.61-5.75-3.46-8.47-5.52
		c-13.25-10.05-23.86-25.17-32.26-42.16C120,826.16,158.06,754,191.36,695.8c2.3-4.04,4.77-8.01,7.36-11.92
		c33.74-50.68,30.08-71.46,37.05-90.87c2.14-5.95,4.83-12.02,7.75-17.89c10.81-21.79,24.7-40.85,24.7-40.85
		s-38.03-39.32-11.18-50.89c26.86-11.56,46.99,28.06,46.99,28.06c16.79-13.74,33.33-21.03,48.45-24.41
		c39.29-8.71,65.63,5.35,65.63,5.35s7.93-18.29,26.9-30.97c25.32-16.93,18.82,51.51,18.82,51.51c12.37,7.35,22.6,15.15,31.07,22.88
		c31.79,29.06,38.51,57.2,38.51,57.2C646.09,753.34,633,925.25,633,925.25s7.06,6.32,11.31-6.11c5.9-17.24,18.76-3.4,18.76-3.4
		c10.07-5.78,11.2,8.09,11.2,8.09S696.65,920.36,684.34,946.96z"/>
</g>
<g>
	<path class="st6" d="M243.52,575.13c10.81-21.79,24.7-40.85,24.7-40.85s-38.03-39.32-11.18-50.89
		c26.86-11.56,46.99,28.06,46.99,28.06c16.79-13.74,33.33-21.03,48.45-24.41C366.23,594.54,280.95,584.49,243.52,575.13z"/>
</g>
<g>
	<path class="st6" d="M182.3,928.98c-13.25-10.05-23.86-25.17-32.26-42.16C120,826.16,158.06,754,191.36,695.8
		c5.14,17.76-19.01,40.74-0.6,70.39C237.41,841.32,223.97,918,182.3,928.98z"/>
</g>
<g>
	<g>
		<path class="st6" d="M358.18,976.48l-0.47-0.01c-27.76-0.57-34.97-28.34-35.46-30.38l-48.2-109.5l1.87-0.88l48.31,109.8
			c0.25,1.15,6.4,27.95,33.02,28.83c0.73-1.01,2.6-4,2.28-7.79c-0.3-3.53-2.38-6.89-6.2-10l1.27-1.67
			c4.29,3.49,6.63,7.36,6.97,11.51c0.46,5.6-2.93,9.56-3.08,9.73L358.18,976.48z"/>
	</g>
	<g>
		<path class="st6" d="M366.42,978.17c-4.5,0-8.79-1.67-9.05-1.77l0.73-1.98c0.08,0.03,8.36,3.24,13.2,0.57
			c1.67-0.92,2.71-2.41,3.19-4.55c2.26-10.11-8.49-21.34-8.6-21.45l1.45-1.51c0.48,0.49,11.67,12.18,9.15,23.43
			c-0.61,2.74-2.03,4.74-4.23,5.95C370.51,977.83,368.44,978.17,366.42,978.17z"/>
	</g>
	<g>
		<path class="st6" d="M376.06,977.01l-0.46-2.07c0.4-0.1,9.8-2.47,10.12-12.31c0.45-13.55-9.91-19.04-10.35-19.27l-0.44-0.23
			l-0.11-0.49L346.5,812.62l2-0.46l28.23,129.56c2.17,1.31,11.48,7.71,11.04,20.99C387.4,974.19,376.17,976.98,376.06,977.01z"/>
	</g>
</g>
<g>
	<g>
		<path class="st6" d="M456.82,967.9l-0.31-0.36c-0.14-0.17-3.54-4.13-3.08-9.73c0.34-4.15,2.69-8.02,6.97-11.51l1.27,1.67
			c-3.82,3.11-5.91,6.49-6.2,10.03c-0.31,3.81,1.55,6.76,2.28,7.76c26.61-0.88,32.77-27.68,33.02-28.83l35.72-101.15l1.93,0.73
			l-35.68,101.02c-0.03,0.17-6.78,29.78-35.45,30.37L456.82,967.9z"/>
	</g>
	<g>
		<path class="st6" d="M448.59,969.59c-2.02,0-4.09-0.34-5.85-1.31c-2.19-1.21-3.62-3.21-4.23-5.95
			c-2.51-11.25,8.68-22.94,9.16-23.43l1.45,1.5c-0.11,0.11-10.86,11.35-8.6,21.45c0.48,2.14,1.52,3.63,3.19,4.55
			c4.84,2.66,13.12-0.54,13.2-0.57l0.73,1.98C457.38,967.92,453.09,969.59,448.59,969.59z"/>
	</g>
	<g>
		<path class="st6" d="M438.94,968.44c-0.11-0.03-11.34-2.82-11.72-14.31c-0.43-13.19,8.75-19.6,11-20.96l18.02-128.88l2.03,0.3
			l-18.17,129.96l-0.48,0.25c-0.44,0.23-10.8,5.72-10.35,19.27c0.32,9.83,9.72,12.21,10.12,12.31L438.94,968.44z"/>
	</g>
</g>
<g>
	<path class="st7" d="M278.2,530.92c0,0,6.33-13.1,16.08-16.29c0,0-20.37-26.6-30.02-21.61C254.62,498.01,278.2,530.92,278.2,530.92
		z"/>
</g>
<g>
	<path class="st7" d="M429.9,495.79c0,0,21.73,8.45,26.55,14.55c0,0,4-37.27-5.11-38.93C442.23,469.75,429.9,495.79,429.9,495.79z"
		/>
</g>
<g>
	<path class="st6" d="M152.78,661.47c-0.02,0.06-0.02,0.11-0.04,0.17c-19.09,4.89-37.77,13.68-42.86,34.16
		c-7.38,29.67-21.62,45.82-34.54,54.57c9.1-45.75,25.19-76,21.16-82.25c-6.43-9.98-16.09,5.48-30.55,27.68
		c-4.23,6.48-10.36,3.99-16.93-2.78c-31.05-31.95-15.95-86.75,26.24-98.86c4.34-1.25,8.73-2.12,13.19-2.51
		C127.05,588.32,162.41,616.59,152.78,661.47z"/>
</g>
<g>
	<g>
		<g>
			<path d="M353.97,568.18c-2.01-1.69-4.1-3.22-6.35-4.27c-2.24-1.05-4.63-1.57-6.95-1.36c-2.32,0.2-4.56,1.08-6.61,2.35
				c-2.04,1.26-3.96,2.96-5.59,4.73l-0.69,0.62l-0.46-0.24l-6.31-3.29l6.96,1.28l-1.15,0.38v0c1.55-2.39,3.53-4.27,5.86-5.8
				c2.31-1.51,5.06-2.48,7.88-2.52c2.82-0.03,5.58,0.89,7.81,2.44C350.63,564.01,352.49,565.98,353.97,568.18z"/>
		</g>
	</g>
</g>
<g>
	<g>
		<g>
			<path d="M423.98,567.91c0.63-2.6,1.71-5.11,3.32-7.35c1.56-2.26,3.84-4.11,6.49-5.11c2.65-0.98,5.56-1.07,8.24-0.48
				c2.7,0.6,5.19,1.65,7.45,3.32v0l-1.2,0.06l6.09-3.71l-4.8,5.36l-0.35,0.39l-0.85-0.33v0c-2.13-1.07-4.5-1.98-6.84-2.42
				c-2.35-0.44-4.74-0.47-6.98,0.18c-2.25,0.64-4.31,1.99-6.05,3.78C426.74,563.42,425.29,565.6,423.98,567.91z"/>
		</g>
	</g>
</g>
<g>
	<path d="M387.75,576.07c0,0-12.86-3.87-9.25-6.78s9.25,1.66,9.25,1.66s5.63-6.51,9.25-2.63
		C400.62,572.2,387.75,576.07,387.75,576.07z"/>
</g>
<g>
	<g>
		<g>
			<path d="M362.23,591.39c1.19,4.67,3.57,9.07,7.17,11.8c1.77,1.38,3.88,2.23,6.07,2.52c2.16,0.33,4.5,0.43,6.48-0.28
				c2-0.67,3.62-2.09,4.63-4.01c1-1.93,1.55-4.19,1.76-6.5c0.43-4.64,0.02-9.45-0.6-14.19l2.04-0.11v0c0.02,4.4,0.4,8.91,1.38,13.13
				c0.51,2.1,1.22,4.16,2.25,5.92c0.99,1.79,2.39,3.22,4.1,3.92c0.87,0.32,1.8,0.48,2.77,0.48c0.97-0.13,2.02-0.08,2.95-0.42
				c1.92-0.47,3.68-1.48,5.08-2.99c2.79-3.06,4.26-7.47,4.97-11.92c0.33,4.51-0.47,9.42-3.46,13.31c-1.48,1.93-3.65,3.35-5.97,4
				c-1.15,0.43-2.34,0.43-3.53,0.58c-1.23,0.03-2.49-0.15-3.7-0.57c-2.42-0.91-4.31-2.85-5.53-4.96c-1.24-2.13-1.94-4.43-2.48-6.72
				c-1.03-4.61-1.21-9.24-0.89-13.89v0l0.33-10.11l1.72,10c0.83,4.82,1.37,9.77,0.88,14.79c-0.25,2.5-0.8,5.07-2.06,7.41
				c-1.27,2.33-3.51,4.21-6.02,4.95c-2.52,0.79-5.03,0.59-7.46,0.16c-2.44-0.46-4.79-1.59-6.69-3.24
				C364.61,601.15,362.65,596.2,362.23,591.39z"/>
		</g>
	</g>
</g>
<g>
	<g>
		<path d="M333.43,586.5c-5.21-1.37-10.59-2.42-15.96-3.29c-5.38-0.86-10.79-1.57-16.22-2.04c-5.43-0.47-10.88-0.82-16.33-0.89
			c-5.45-0.15-10.91,0.02-16.37,0.26c5.44-0.42,10.9-0.76,16.37-0.8c5.47-0.1,10.94,0.07,16.4,0.37c5.47,0.29,10.92,0.83,16.36,1.52
			c5.44,0.71,10.84,1.57,16.25,2.81c0.55,0.13,0.9,0.69,0.78,1.27c-0.12,0.57-0.67,0.93-1.23,0.81c-0.01,0-0.02,0-0.03-0.01
			L333.43,586.5z"/>
	</g>
	<g>
		<path d="M261.95,607.03c5.9-2.7,12.08-4.69,18.28-6.52c6.22-1.8,12.51-3.28,18.84-4.59c6.33-1.34,12.71-2.37,19.1-3.32
			c3.2-0.47,6.41-0.84,9.61-1.26l9.64-1.01c0.57-0.06,1.07,0.37,1.13,0.95c0.06,0.58-0.35,1.1-0.92,1.16c-0.01,0-0.02,0-0.02,0
			l-0.03,0l-9.62,0.74c-3.2,0.33-6.4,0.61-9.6,0.99c-6.39,0.78-12.77,1.62-19.1,2.78c-6.34,1.14-12.65,2.44-18.9,4.06
			C274.13,602.69,267.91,604.5,261.95,607.03z"/>
	</g>
	<g>
		<path d="M288.57,621.57c3.73-3.07,7.74-5.78,11.86-8.28c4.12-2.5,8.39-4.75,12.79-6.72c4.38-1.99,8.89-3.73,13.5-5.11
			c4.59-1.48,9.32-2.45,14.06-3.3c0.56-0.1,1.09,0.29,1.19,0.86c0.1,0.58-0.28,1.13-0.84,1.23c-0.01,0-0.02,0-0.03,0.01l-0.05,0.01
			c-4.67,0.66-9.35,1.44-13.92,2.73c-4.59,1.19-9.1,2.75-13.52,4.56c-4.42,1.79-8.74,3.87-12.93,6.2
			C296.49,616.09,292.41,618.64,288.57,621.57z"/>
	</g>
</g>
<g>
	<g>
		<path d="M445.56,577.24c5.21-1.37,10.59-2.42,15.96-3.29c5.38-0.86,10.79-1.57,16.22-2.04c5.43-0.47,10.88-0.82,16.33-0.89
			c5.45-0.15,10.91,0.02,16.37,0.26c-5.44-0.42-10.9-0.76-16.37-0.79c-5.47-0.1-10.94,0.07-16.4,0.37
			c-5.47,0.29-10.92,0.83-16.36,1.52c-5.44,0.71-10.84,1.57-16.25,2.81c-0.55,0.13-0.9,0.69-0.78,1.27
			c0.12,0.57,0.67,0.93,1.23,0.81c0.01,0,0.02,0,0.03-0.01L445.56,577.24z"/>
	</g>
	<g>
		<path d="M517.04,597.78c-5.9-2.7-12.08-4.69-18.28-6.52c-6.22-1.8-12.51-3.28-18.84-4.59c-6.33-1.34-12.71-2.37-19.1-3.32
			c-3.2-0.47-6.41-0.84-9.61-1.26l-9.64-1.01c-0.56-0.06-1.07,0.37-1.13,0.95c-0.06,0.58,0.35,1.1,0.92,1.16c0.01,0,0.01,0,0.02,0
			l0.03,0l9.62,0.74c3.2,0.33,6.4,0.61,9.6,0.99c6.39,0.78,12.77,1.62,19.1,2.78c6.34,1.14,12.65,2.44,18.9,4.06
			C504.87,593.43,511.08,595.24,517.04,597.78z"/>
	</g>
	<g>
		<path d="M490.42,612.32c-3.73-3.07-7.74-5.78-11.86-8.28c-4.12-2.5-8.39-4.75-12.79-6.72c-4.38-1.99-8.89-3.73-13.5-5.11
			c-4.59-1.48-9.32-2.45-14.06-3.3c-0.56-0.1-1.09,0.29-1.19,0.86c-0.1,0.58,0.28,1.13,0.84,1.23c0.01,0,0.02,0,0.03,0.01l0.05,0.01
			c4.67,0.66,9.35,1.44,13.92,2.73c4.59,1.19,9.1,2.75,13.52,4.56c4.42,1.79,8.74,3.87,12.93,6.2
			C482.5,606.83,486.59,609.39,490.42,612.32z"/>
	</g>
</g>
<g>
	<path class="st8" d="M150.22,961.55c-4.35,4.49-12.37,3.48-17.92-2.25c-5.55-5.74-6.53-14.03-2.18-18.52
		c4.35-4.49,12.37-3.48,17.92,2.25C153.59,948.76,154.56,957.06,150.22,961.55z"/>
</g>
<g>
	<path class="st8" d="M649.05,950.97c-3.46-5.25-1.01-13.21,5.47-17.78c6.48-4.57,14.55-4.02,18.01,1.23
		c3.46,5.25,1.01,13.21-5.47,17.78C660.58,956.78,652.51,956.22,649.05,950.97z"/>
</g>
<g>
	<path class="st6" d="M278.37,854.95c-4.58,0-8-1.05-10.17-3.12c-2.25-2.15-2.27-4.62-2.27-4.73l2.05,0.01l-1.03,0l1.03-0.01
		c0,0.07,0.05,1.72,1.66,3.22c1.51,1.41,4.73,2.97,11.54,2.39l0.17,2.12C280.31,854.9,279.31,854.95,278.37,854.95z"/>
</g>
<g>
	<path class="st6" d="M521.44,859.26l-0.38-2.09c10.63-2.07,13.8-11.14,13.93-11.52l1.94,0.69
		C536.78,846.77,533.27,856.95,521.44,859.26z"/>
</g>
<g>
	<g>
		<g>
			<path d="M295.2,515.87c-3.68-7.43-9.14-13.81-15.79-18.55c-3.27-2.33-7.12-4.7-11.01-5.68c-3.48-0.88-7.9,0.29-8.68,4.42
				c-0.32,1.67,2.16,2.38,2.48,0.71c0.88-4.68,6.82-2.29,9.44-1.01c3.06,1.49,5.97,3.34,8.64,5.49c5.31,4.3,9.64,9.76,12.71,15.96
				C293.74,518.73,295.96,517.39,295.2,515.87L295.2,515.87z"/>
		</g>
	</g>
</g>
<g>
	<g>
		<g>
			<path d="M431.28,494.65c2.82-6.01,6.05-11.89,10.39-16.87c1.94-2.23,4.25-4.69,7.22-5.3c2.29-0.47,5.05,0.65,5.59,3.18
				c0.35,1.67,2.83,0.96,2.48-0.71c-0.62-2.95-3.26-4.81-6.04-5.17c-3.42-0.44-6.54,1.56-8.94,3.87c-5.62,5.4-9.58,12.58-12.9,19.65
				C428.34,494.84,430.55,496.19,431.28,494.65L431.28,494.65z"/>
		</g>
	</g>
</g>
<g>
	<path class="st5" d="M114,908.57c-20.86-12.3-37.27-31.42-41.63-60.92c-1.91-12.96-2.77-25.45-2.86-37.38
		c13.66,2.27,28.64,11.6,32.94,40.23c3.78,25.26,9.81,35.41,15.29,38.92c7.77,4.98,6.15,16.96-2.79,18.95
		C114.65,908.45,114.33,908.51,114,908.57z"/>
</g>
<g>
	<g>
		<path class="st9" d="M276.2,502.3c4.21,3.06,7.66,7.13,10.08,11.81c0.47,0.9,1.8,0.1,1.33-0.8c-2.55-4.93-6.21-9.17-10.64-12.38
			C276.17,500.33,275.4,501.71,276.2,502.3L276.2,502.3z"/>
	</g>
</g>
<g>
	<g>
		<path class="st9" d="M263.8,496.07c8.8,1.53,15.22,8.3,21.13,14.67c0.69,0.74,1.78-0.39,1.09-1.13
			c-6.08-6.55-12.77-13.51-21.81-15.08C263.24,494.36,262.82,495.9,263.8,496.07L263.8,496.07z"/>
	</g>
</g>
<g>
	<g>
		<path class="st9" d="M274.85,504.81c2.4,1.89,4.5,4.17,6.4,6.59c0.94,1.19,1.83,2.42,2.7,3.67c0.45,0.65,0.9,1.31,1.35,1.97
			c0.21,0.31,0.42,0.62,0.63,0.93c0.09,0.14,0.19,0.28,0.28,0.42c0.07,0.1,0.14,0.21,0.21,0.31c0.09,0.17,0.11,0.13,0.06-0.1
			c0.18-0.19,0.36-0.37,0.54-0.56c-0.03,0.01-0.05,0.02-0.08,0.03c0.2,0.03,0.4,0.05,0.59,0.08c0.06,0.05,0.11,0.1,0.16,0.15
			c-0.04,0.32-0.08,0.64-0.12,0.97c0.02-0.01,0.03-0.03,0.05-0.04c0.77-0.65-0.33-1.77-1.09-1.13c-0.02,0.01-0.03,0.03-0.05,0.04
			c-0.28,0.24-0.25,0.66-0.12,0.97c0.32,0.74,1.34,0.64,1.6-0.08c0.29-0.81-0.58-1.66-0.98-2.27c-1.1-1.63-2.21-3.25-3.38-4.82
			c-2.34-3.15-4.91-6.08-7.97-8.49C274.84,502.81,274.07,504.2,274.85,504.81L274.85,504.81z"/>
	</g>
</g>
<g>
	<g>
		<path class="st9" d="M274.19,507.7c2.91,3.2,5.41,6.76,7.47,10.6c0.48,0.9,1.81,0.09,1.33-0.8c-2.12-3.95-4.72-7.62-7.71-10.92
			C274.6,505.82,273.51,506.95,274.19,507.7L274.19,507.7z"/>
	</g>
</g>
<g>
	<g>
		<path class="st9" d="M274.99,513.8c0.83,1.01,1.66,2.03,2.5,3.04c0.21,0.26,0.41,0.54,0.72,0.69c0.5,0.25,1.22,0.08,1.38-0.54
			c0.1-0.42-0.07-0.88-0.44-1.11c-0.2-0.12-0.44-0.16-0.66-0.1c-0.31,0.09-0.47,0.32-0.59,0.61c-0.15,0.39,0.16,0.89,0.54,0.98
			c0.45,0.1,0.79-0.14,0.95-0.56c-0.02,0.05-0.04,0.1-0.05,0.15c-0.09,0.1-0.18,0.19-0.28,0.29c-0.28-0.03-0.55-0.07-0.83-0.1
			c-0.08-0.13-0.11-0.16-0.08-0.11c-0.11-0.2-0.01-0.19,0.24-0.55c0.08-0.4,0.27-0.52,0.54-0.35c-0.02-0.01-0.03-0.02-0.05-0.03
			c0.05,0.03,0.09,0.09,0.03,0.02c-0.13-0.15-0.26-0.31-0.39-0.46c-0.27-0.33-0.55-0.67-0.83-1c-0.54-0.66-1.09-1.32-1.63-1.98
			c-0.26-0.32-0.82-0.3-1.09,0C274.69,513.01,274.71,513.46,274.99,513.8L274.99,513.8z"/>
	</g>
</g>
<g>
	<g>
		<path class="st9" d="M269.24,501.46c0.98,0.74,1.97,1.48,2.95,2.22c0.15,0.11,0.42,0.13,0.59,0.08c0.18-0.05,0.37-0.19,0.46-0.37
			c0.21-0.41,0.07-0.83-0.28-1.09c-0.98-0.74-1.97-1.48-2.95-2.22c-0.15-0.11-0.42-0.13-0.59-0.08c-0.18,0.05-0.37,0.19-0.46,0.37
			C268.75,500.79,268.89,501.2,269.24,501.46L269.24,501.46z"/>
	</g>
</g>
<g>
	<g>
		<path class="st9" d="M267.89,507.27c0.27,0.37,0.54,0.74,0.8,1.11c0.05,0.09,0.11,0.17,0.2,0.22c0.07,0.07,0.16,0.12,0.26,0.14
			c0.1,0.03,0.2,0.04,0.31,0.01c0.1,0,0.2-0.04,0.29-0.09c0.16-0.11,0.31-0.27,0.35-0.48c0.01-0.07,0.02-0.14,0.03-0.21
			c0-0.14-0.04-0.28-0.11-0.4c-0.27-0.37-0.54-0.74-0.8-1.11c-0.05-0.09-0.11-0.17-0.2-0.22c-0.07-0.07-0.16-0.12-0.26-0.14
			c-0.1-0.03-0.2-0.04-0.31-0.01c-0.1,0-0.2,0.04-0.29,0.09c-0.16,0.11-0.31,0.27-0.35,0.48c-0.01,0.07-0.02,0.14-0.03,0.21
			C267.78,507.02,267.82,507.15,267.89,507.27L267.89,507.27z"/>
	</g>
</g>
<g>
	<g>
		<path class="st9" d="M263.35,498.67c0.62,0.93,1.43,1.71,2.39,2.27c0.35,0.2,0.86,0.1,1.05-0.29c0.19-0.38,0.1-0.87-0.28-1.09
			c-0.28-0.16-0.54-0.34-0.79-0.54c0.05,0.04,0.1,0.08,0.16,0.12c-0.42-0.33-0.79-0.72-1.11-1.15c0.04,0.05,0.08,0.11,0.12,0.16
			c-0.07-0.1-0.14-0.19-0.21-0.29c-0.12-0.17-0.26-0.31-0.46-0.37c-0.18-0.05-0.43-0.03-0.59,0.08c-0.16,0.11-0.31,0.27-0.35,0.48
			C263.23,498.26,263.23,498.5,263.35,498.67L263.35,498.67z"/>
	</g>
</g>
<g>
	<g>
		<path class="st9" d="M433.26,495.98c1.45-4.55,3.53-8.85,6.18-12.79c0.57-0.84-0.77-1.64-1.33-0.8
			c-2.72,4.05-4.84,8.49-6.33,13.17C431.46,496.53,432.95,496.95,433.26,495.98L433.26,495.98z"/>
	</g>
</g>
<g>
	<g>
		<path class="st9" d="M443.57,478.81c1.19-2.44,3.27-4.34,5.76-5.2c0.39-0.14,0.65-0.55,0.54-0.98c-0.11-0.4-0.55-0.69-0.95-0.56
			c-2.87,0.99-5.32,3.13-6.68,5.93c-0.19,0.38-0.1,0.86,0.28,1.09C442.85,479.3,443.38,479.19,443.57,478.81L443.57,478.81z"/>
	</g>
</g>
<g>
	<g>
		<path class="st9" d="M450.8,475.57c0.09,0.09,0.18,0.18,0.27,0.28c0.07,0.08,0.15,0.13,0.25,0.16c0.09,0.05,0.19,0.07,0.3,0.07
			c0.11,0,0.21-0.02,0.3-0.07c0.1-0.03,0.18-0.09,0.25-0.16c0.04-0.05,0.08-0.11,0.12-0.16c0.07-0.12,0.1-0.26,0.11-0.4
			c-0.01-0.07-0.02-0.14-0.03-0.21c-0.04-0.13-0.1-0.25-0.2-0.35c-0.09-0.09-0.18-0.18-0.27-0.28c-0.07-0.08-0.15-0.13-0.25-0.16
			c-0.09-0.05-0.19-0.07-0.3-0.07c-0.11,0-0.21,0.02-0.3,0.07c-0.1,0.03-0.18,0.09-0.25,0.16c-0.04,0.05-0.08,0.11-0.12,0.16
			c-0.07,0.12-0.1,0.26-0.11,0.4c0.01,0.07,0.02,0.14,0.03,0.21C450.63,475.36,450.7,475.47,450.8,475.57L450.8,475.57z"/>
	</g>
</g>
<g>
	<g>
		<path class="st9" d="M445.69,478.04c-3.11,3.12-5.85,6.63-8.15,10.42c-0.53,0.87,0.8,1.67,1.33,0.8c2.24-3.69,4.89-7.07,7.91-10.1
			C447.5,478.45,446.41,477.32,445.69,478.04L445.69,478.04z"/>
	</g>
</g>
<g>
	<g>
		<path class="st9" d="M437.09,495.45c0.06-0.4,0.14-0.8,0.24-1.2c0.05-0.2,0.11-0.39,0.18-0.58c0.03-0.1,0.07-0.19,0.1-0.29
			c0.02-0.05,0.04-0.1,0.05-0.14c0.03-0.08,0.04-0.09,0.02-0.05c-0.02,0.05-0.01,0.03,0.02-0.05c0.02-0.05,0.04-0.09,0.06-0.14
			c0.04-0.09,0.08-0.18,0.13-0.28c0.09-0.18,0.18-0.36,0.28-0.54c0.2-0.35,0.42-0.69,0.66-1.02c0.25-0.33,0.06-0.91-0.28-1.09
			c-0.41-0.22-0.79-0.07-1.05,0.29c-1,1.35-1.66,2.98-1.9,4.66c-0.06,0.41,0.1,0.88,0.54,0.98
			C436.51,496.09,437.03,495.89,437.09,495.45L437.09,495.45z"/>
	</g>
</g>
<g>
	<g>
		<path class="st9" d="M441.47,494.11c1.59-4.9,3.37-10.3,7.52-13.54c0.78-0.61,0.01-1.99-0.78-1.38
			c-4.52,3.53-6.48,9.14-8.23,14.49C439.67,494.66,441.16,495.08,441.47,494.11L441.47,494.11z"/>
	</g>
</g>
<g>
	<g>
		<path class="st9" d="M448.59,486.02c0.8-2.39,2.33-4.54,4.32-6.03c0.34-0.25,0.5-0.69,0.28-1.09c-0.19-0.34-0.72-0.54-1.05-0.29
			c-2.33,1.75-4.08,4.16-5.02,6.98c-0.14,0.41,0.16,0.87,0.54,0.98C448.06,486.7,448.45,486.43,448.59,486.02L448.59,486.02z"/>
	</g>
</g>
<g>
	<g>
		<path class="st9" d="M449.08,475.98c-0.36,0.18-0.71,0.37-1.07,0.55c-0.09,0.05-0.16,0.12-0.22,0.21
			c-0.07,0.08-0.11,0.17-0.14,0.27c-0.03,0.11-0.04,0.21-0.01,0.32c0,0.11,0.04,0.2,0.09,0.3c0.11,0.17,0.26,0.32,0.46,0.37
			c0.07,0.01,0.14,0.02,0.2,0.03c0.14,0,0.27-0.04,0.39-0.11c0.36-0.18,0.71-0.37,1.07-0.55c0.09-0.05,0.16-0.12,0.22-0.21
			c0.07-0.08,0.11-0.17,0.14-0.27c0.03-0.11,0.04-0.21,0.01-0.32c0-0.11-0.04-0.2-0.09-0.3c-0.11-0.17-0.26-0.32-0.46-0.37
			c-0.07-0.01-0.14-0.02-0.2-0.03C449.33,475.88,449.2,475.91,449.08,475.98L449.08,475.98z"/>
	</g>
</g>
<g>
	<g>
		<path class="st9" d="M446.45,488.53c-1.98,2.45-3.14,5.47-3.31,8.65c-0.05,1.02,1.49,1.02,1.54,0c0.14-2.74,1.15-5.42,2.86-7.53
			c0.27-0.33,0.31-0.8,0-1.13C447.27,488.24,446.72,488.19,446.45,488.53L446.45,488.53z"/>
	</g>
</g>
<g>
	<g>
		<path class="st9" d="M451.67,485.05c-0.52,1.39-1.03,2.79-1.55,4.18c-0.14,0.39,0.16,0.89,0.54,0.98c0.44,0.1,0.79-0.14,0.95-0.56
			c0.52-1.39,1.03-2.79,1.55-4.18c0.14-0.39-0.16-0.89-0.54-0.98C452.17,484.39,451.82,484.63,451.67,485.05L451.67,485.05z"/>
	</g>
</g>
<g>
	<g>
		<g>
			<path d="M277.85,530.92c1.17-3.45,3.46-6.29,6.11-8.65c1.32-1.17,2.73-2.2,4.2-3.16c1.56-1.02,3.44-2.3,5.36-1.77
				c1.6,0.44,2.28-2.12,0.68-2.56c-2.32-0.64-4.55,0.3-6.52,1.51c-1.8,1.11-3.51,2.36-5.12,3.74c-3.18,2.72-5.81,6.11-7.19,10.18
				C274.83,531.83,277.31,532.53,277.85,530.92L277.85,530.92z"/>
		</g>
	</g>
</g>
<g>
	<g>
		<g>
			<path d="M430.16,497.22c4.12,1.05,8.13,2.49,11.97,4.35c1.88,0.91,3.71,1.91,5.5,3.01c0.92,0.56,1.83,1.15,2.72,1.76
				c0.45,0.3,0.89,0.62,1.33,0.93c0.22,0.16,0.44,0.32,0.66,0.48c0.25,0.28,0.29,0.21,0.13-0.22c0.2-0.26,0.39-0.53,0.59-0.79
				c-0.06,0.03-0.12,0.06-0.17,0.09c-1.47,0.79-0.17,3.08,1.3,2.29c0.93-0.5,1.07-1.65,0.57-2.55c-0.53-0.97-1.74-1.58-2.61-2.19
				c-2.16-1.51-4.42-2.88-6.74-4.11c-4.63-2.45-9.52-4.33-14.57-5.62C429.24,494.25,428.55,496.81,430.16,497.22L430.16,497.22z"/>
		</g>
	</g>
</g>
<path class="st3" d="M873.53,381.53c0.25-1.41,0.71-2.77,1.05-4.16c0.21-0.83,0.58-1.66,0.52-2.52c-0.07-0.97,0.01-2.3-1.48-2.76
	c-1.41-0.43-1.81,0.77-2.34,1.49c-1.55,2.12-3.3,4.08-5.63,5.65c-2.68,1.8-5.24,3.7-7.87,5.55c-0.81,0.57-1.56,1.26-2.52,1.62
	c-3.11,1.15-6.24,2.3-9.5,3.19c-2.95,0.81-5.34,2.16-7.54,3.83c-3.01,2.28-5.09,5.17-7.05,8.12c-1.16,1.75-2.89,2.84-5.25,3.15
	c-3.49,0.47-6.33,1.8-9.03,3.39c-0.82,0.48-1.81,0.79-2.76,1.2c-0.16-0.33-0.25-0.44-0.23-0.47c0.36-0.46,0.75-0.9,1.11-1.35
	c3-3.68,6.2-7.25,7.85-11.66c0.78-2.08,1.5-4.18,2.21-6.28c0.45-1.34,1.09-2.44,3.01-2.67c1.08-0.13,2.1-0.54,3.01-0.99
	c0.39-0.19,0.77-0.96,0.59-1.19c-0.35-0.43-1.13-0.87-1.69-0.91c-0.92-0.06-1.81,0.19-2.86,0.33c0.06-0.46,0.06-0.74,0.13-1.01
	c1.51-5.96,5.27-10.78,9.15-15.55c0.76-0.94,2-1.18,3.33-1.2c3.4-0.06,6.84,0.02,10.23-0.11c3.76-0.13,7.42-0.53,10.54-2.13
	c4.39-2.25,6.58-5.83,7.63-10.04c1.39-5.57,0.94-11.42,0.16-17.29c-0.54-4.03-0.65-7.98,0.03-11.84c0.09-0.5,0.16-1,0.17-1.51
	c0.01-0.6-0.08-1.32-1.01-1.41c-0.46-0.04-1.02,0.34-1.3,0.68c-0.41,0.5-0.56,1.16-0.92,1.7c-1.4,2.11-2.48,4.46-4.33,6.23
	c-4.67,4.47-9.71,8.67-14.58,13c-1.4,1.24-2.89,2.43-4.04,3.83c-3.87,4.7-6.2,10.05-6.9,16.06c-0.11,0.9-0.42,1.82-0.91,2.58
	c-2.27,3.51-5.58,6.43-7.24,10.29c-0.07,0.17-0.34,0.25-0.72,0.52c0.07-2.66,0.1-5.11,0.21-7.55c0.21-4.66,0.55-9.3,0.68-13.98
	c0.04-1.46,0.44-2.42,2.09-2.95c0.97-0.31,1.78-0.99,2.41-1.68c0.31-0.34,0.3-1.21-0.03-1.6c-0.32-0.38-1.25-0.58-1.88-0.62
	c-0.55-0.04-1.07,0.26-1.96,0.51c0.23-1.05,0.17-1.92,0.59-2.51c1.81-2.53,3.61-5.09,5.71-7.43c2.85-3.17,6-6.14,8.96-9.23
	c1.61-1.68,2.65-3.65,2.98-5.91c0.55-3.72,1.07-7.44,1.61-11.16c0.63-4.31,0.75-8.68-0.29-13.18c-1.24-5.33-0.6-10.29,1.53-14.97
	c0.47-1.04,0.84-2.14,1.06-3.27c0.07-0.37-0.34-1.02-0.75-1.31c-0.25-0.18-1.09-0.07-1.37,0.16c-0.76,0.61-1.4,1.33-2.01,2.06
	c-2.7,3.18-5.39,6.37-8.04,9.58c-2.85,3.44-5.7,6.88-8.45,10.38c-0.9,1.14-1.55,2.44-2.18,3.73c-2.11,4.28-3.13,8.91-3.95,13.61
	c-1.19,6.86-0.81,13.8,2.25,20.89c0.71,1.64,0.75,3.21,0.46,4.82c-0.82,4.47-1.34,9-1.13,13.67c0.07,1.51-0.12,3-0.2,4.49
	c-0.17,0.03-0.33,0.05-0.5,0.08c-0.21-0.33-0.41-0.66-0.62-0.99c-1.89-3.07-3.66-6.18-5.71-9.19c-1.59-2.33-2.5-4.68-2.76-7.17
	c-0.13-1.26-0.24-2.52-0.33-3.77c-0.4-5.62-2.56-10.89-6.71-15.91c-2.47-2.99-4.52-6.21-6.62-9.38c-0.72-1.08-1.29-2.31-1.48-3.47
	c-0.81-4.74-1.44-9.49-2.14-14.23c-0.07-0.44,0.02-0.92-0.18-1.33c-0.18-0.37-0.64-0.88-1.02-0.96c-0.38-0.08-0.99,0.2-1.19,0.49
	c-0.32,0.46-0.41,1.06-0.55,1.62c-0.56,2.08-1.07,4.18-1.65,6.25c-1.46,5.26-2.98,10.49-4.41,15.76c-1.4,5.16-0.67,10.41,2.07,15.74
	c2.07,4.01,5.04,7.42,9.89,9.46c2.26,0.95,4.6,1.84,6.96,2.42c4.45,1.09,6.98,3.92,9.21,6.95c1.58,2.14,2.65,4.49,4.11,6.69
	c1.55,2.33,2.23,4.75,2.84,7.2c0.09,0.37-0.03,0.76-0.06,1.23c-1.8-1.14-3.35-2.19-4.98-3.13c-0.94-0.54-2.07-0.99-2.91-0.22
	c-0.82,0.75-0.31,1.75,0.4,2.46c1.02,1.02,2.26,1.92,3.48,2.79c1.29,0.93,3.21,1.6,3.86,2.69c0.66,1.1,0.14,2.59,0.08,3.89
	c-0.29,6.01-1.29,11.82-4.06,17.12c-0.17,0.32-0.45,0.58-0.79,1.01c-0.24-0.47-0.38-0.67-0.46-0.88c-1.15-3.15-2.25-6.31-3.47-9.46
	c-0.42-1.08-1.37-2.11-1.63-3.19c-1.01-4.15-3.19-8.03-5.58-11.87c-2.27-3.63-5.49-6.54-9.63-8.94c-4.04-2.35-7.82-5.08-11.59-7.77
	c-1.35-0.96-2.48-2.22-3.46-3.46c-1.36-1.72-2.57-3.51-3.68-5.33c-2.05-3.37-3.89-6.78-3.79-10.44c0.01-0.29,0.08-0.63-0.07-0.88
	c-0.26-0.43-0.68-0.82-1.03-1.23c-0.42,0.27-0.89,0.5-1.23,0.82c-0.2,0.19-0.18,0.54-0.27,0.81c-1.02,3.25-1.21,6.63-0.63,10.18
	c0.68,4.15,1.05,8.3,1.7,12.46c0.44,2.81,1.06,5.63,1.74,8.44c0.44,1.83,1.69,3.47,3.35,4.85c6.06,5.05,12.89,8.67,21.02,9.97
	c2.4,0.38,4.78,1.07,7.17,1.47c2.33,0.39,3.77,1.55,4.75,3.33c2.32,4.23,3.58,8.58,4.55,12.96c0.31,1.42-0.21,2.58-1.64,3.57
	c-0.31-0.92-0.55-1.7-0.85-2.48c-0.81-2.14-1.81-4.23-3.82-5.96c-1.67-1.44-3.47-1.35-4.13,0.31c-0.3,0.76-0.26,1.71-0.09,2.58
	c0.46,2.41,2.17,4.42,4.17,6.3c0.81,0.76,1.63,1.51,2.61,2.43c-4.12,3.81-7.44,8-12.23,11.06c-0.27,0.17-0.69,0.19-1.32,0.35
	c0.83-3.62-0.51-7.32,0.63-10.64c0.22-0.65,0.1-1.46-0.07-2.19c-1.91-8.1-6.95-14.64-16.1-18.94c-3.37-1.58-6.91-2.83-10.37-4.23
	c-4.12-1.68-7.87-3.78-10.53-7.08c-1-1.25-1.89-2.55-2.85-3.83c-0.45-0.6-0.87-1.24-1.44-1.77c-0.33-0.3-1.01-0.59-1.4-0.54
	c-0.38,0.05-0.76,0.49-0.86,0.85c-0.12,0.47-0.07,1.03,0.08,1.53c0.6,2.06,1.13,4.15,1.94,6.18c2.18,5.46,5.65,10.53,9.63,15.4
	c3.01,3.69,6.76,6.68,11.66,8.53c1.79,0.67,3.57,1.39,5.29,2.21c3.87,1.84,7.59,3.87,10.51,6.84c1.41,1.43,2.19,2.92,1.89,4.63
	c-0.25,1.49-0.38,3.01-0.57,4.63c-2.41,0.55-4.8,1.04-7.12,1.66c-1.84,0.49-3.81,0.89-5.34,1.75c-2.29,1.29-4.37,2.86-6.28,4.51
	c-0.98,0.84-1.48,2.1-2.05,3.23c-0.3,0.6-0.17,1.44,0.81,1.69c0.51,0.13,1.37-0.18,1.65-0.55c1.71-2.19,3.65-4.16,5.93-5.96
	c1.54-1.22,3.23-2.07,5.23-2.61c1.6-0.43,3.27-0.75,4.91-1.09c3.51-0.72,6.76-1.79,9.19-3.94c1.1-0.98,2.49-0.88,4.07-0.57
	c2.92,0.57,5.84,1.09,8.76,1.54c0.96,0.15,1.95,0.08,2.88-0.04c1.14-0.14,2.22-0.5,2.22-1.64c0-1.2-1.18-1.71-2.34-2.08
	c-2.94-0.94-5.84-1.1-8.68-0.67c-0.81,0.12-1.62,0.27-2.43,0.4c1.04-1.48,1.66-3.22,3.93-3.35c2.88-0.17,5.22-1.13,7.35-2.47
	c0.72-0.45,1.58-0.75,2.35-1.15c1.21-0.63,2.44-0.42,3.73,0.33c0.78,0.45,1.58,1.11,2.38,1.23c2.93,0.43,5.93,0.99,8.77,0.91
	c2.91-0.09,5.79,0.05,8.72,0.41c3.18,0.39,6.24,0.23,8.91-0.84c9.36-3.75,15.45-9.83,17.37-18.73
	C872.63,387.97,872.96,384.72,873.53,381.53z M865.3,333.34c0.17,0.53,0.38,0.99,0.45,1.46c0.79,5.42,1.3,10.83,0.47,16.05
	c-0.38,2.39-1.18,4.74-2.27,6.89c-2.12,4.18-6.58,5.98-12,6.37c-3.66,0.26-7.44,0.11-11.16,0.15l-0.26-0.47
	c1.58-0.84,3.1-1.76,4.75-2.5c3.08-1.38,5.16-3.46,6.68-6.09c1.72-2.98,3.86-5.76,5.66-8.71
	C860.22,342.19,862.69,337.82,865.3,333.34z M840.07,355.71c2-4.4,4.8-8.25,9.05-11.35c3.8-2.77,6.98-6.1,10.44-9.19
	c0.81-0.72,1.62-1.44,2.43-2.17c0.17,0.11,0.35,0.21,0.52,0.32c-0.83,1.55-1.51,3.19-2.53,4.64c-3.53,5.03-6.57,10.34-10.46,15.18
	c-3.01,3.75-6.54,6.95-11.49,9.59C838.11,359.97,839.11,357.83,840.07,355.71z M831.53,334.25c1.89-3.88,3.66-7.79,4.04-12.19
	c0.06-0.65,0.25-1.29,0.21-1.94c-0.31-5.14,1.38-9.67,3.57-14.07c2-4.01,2.74-8.43,3.2-12.97c-0.64,1.38-1.3,2.76-1.91,4.15
	c-1.88,4.26-3.87,8.48-5.55,12.81c-0.82,2.11-1.4,4.4-1.49,6.69c-0.22,5.76-1.43,11.17-4.17,16.16c-0.78,1.42-1.25,2.99-2.07,4.98
	c-1.6-3.41-2.01-6.32-2.05-9.15c-0.09-7.92,1.38-15.45,4.7-22.47c0.43-0.9,0.91-1.81,1.55-2.59c3.44-4.17,6.92-8.32,10.42-12.45
	c0.89-1.05,1.88-2.04,2.98-3.23c0.11,0.36,0.24,0.55,0.2,0.69c-0.9,3.46-0.72,7.08,0.05,10.72c0.84,3.98,0.94,7.84,0.44,11.66
	c-0.5,3.87-1.06,7.73-1.62,11.59c-0.37,2.55-1.52,4.76-3.39,6.64c-3.4,3.4-6.78,6.83-10.18,10.23c-0.09,0.09-0.3,0.08-0.78,0.19
	C829.98,337.67,830.71,335.94,831.53,334.25z M797.42,312.43c1.4,5.74,5.36,10.69,9.37,15.61c3.82,4.69,5.6,9.65,5.8,14.87
	c0.01,0.21-0.11,0.4-0.19,0.66c-2.65-2.91-5.29-5.62-7.64-8.47c-1.21-1.47-1.88-3.19-2.59-4.44c0.01-0.09,0.04-0.18,0.07-0.26
	c-0.57-1.06-0.96-2.16-1.39-3.26c-0.04-0.1-0.06-0.19-0.08-0.29c-3.6-6.25-4.25-8.82-3.7-14.55
	C797.2,312.35,797.41,312.38,797.42,312.43z M800.19,343.97c-3.1-1.62-5.13-4.04-6.75-7.25c-0.27-0.26-0.42-0.6-0.35-0.99
	c-0.01,0.01-0.02,0.02-0.02,0.03c-1.9-3.57-2.87-6.89-2.24-10.12c0.87-4.43,2.11-8.77,3.2-13.14c0.05-0.19,0.24-0.35,0.55-0.79
	c0.08,1.08,0.24,1.87,0.18,2.62c-0.25,3.72,0.62,7.4,2.97,10.92c0.64,0.96,1.03,1.83,1.17,2.63c0.1,0.11,0.19,0.23,0.26,0.37
	c0.58,1.22,0.81,2.47,1.22,3.71c0.01,0.04,0.01,0.07,0.02,0.11c0.07-0.06,0.14-0.11,0.22-0.17c0.11,0.36,0.11,0.76,0.34,1.08
	c1.26,1.74,2.38,3.58,3.91,5.16c2.68,2.74,4.75,5.72,6.81,8.72c0.26,0.38,0.4,0.81,0.79,1.62
	C808.04,347.02,803.94,345.93,800.19,343.97z M789.98,376.37c-2.59-1.44-5.04-3.1-7.51-4.7c-2.37-1.54-3.8-3.57-4.45-5.86
	c-0.48-1.69-0.84-3.4-1.09-5.1c-0.77-5.26-1.46-10.51-2.17-15.76c-0.08-0.58-0.09-1.15-0.13-1.73c1.84,2.4,3.38,4.71,3.59,7.33
	c0.13,1.61,0.7,3.26,1.02,4.89c0.37,1.9,1.23,3.68,2.61,5.34c2.82,3.38,5.63,6.77,8.58,10.09c0.94,1.05,2.17,2.04,3.46,2.79
	c2.89,1.66,5.91,3.13,8.85,4.7c1.08,0.58,2.12,1.24,3.08,2.03C800.35,379.77,794.93,379.11,789.98,376.37z M800.97,375.41
	c-4.85-2.44-9.2-5.25-12.23-9.41c-1.72-2.35-3.73-4.59-5.57-6.89c-1.42-1.77-1.8-3.66-1.97-5.99c4.41,4.44,9.44,7.65,14.45,10.89
	c0.6,0.39,1.17,0.83,1.82,1.15c4.11,2.02,6.88,4.99,8.91,8.44c1.3,2.21,2.47,4.47,3.82,6.93
	C806.78,378.62,803.94,376.9,800.97,375.41z M808.74,395.84c2.92,2.22,3.61,4.97,4.05,7.77
	C810.49,401.25,808.3,398.85,808.74,395.84z M794.58,406.08c-0.77-0.42-1.59-0.77-2.3-1.26c-3.45-2.34-7.28-4.02-11.2-5.51
	c-4.42-1.69-7.93-4.23-10.67-7.64c-2.38-2.96-4.79-5.89-6.76-9.51c0.9,0.48,1.4,0.73,1.88,1.02c5.82,3.43,11.05,7.59,17.12,10.74
	c1.54,0.8,2.79,2.16,4,3.38c2.8,2.81,5.49,5.68,8.23,8.53C794.77,405.91,794.68,406,794.58,406.08z M789.92,397.7
	c-2.59-2.83-5.68-5.05-9.15-7.1c-5.34-3.16-10.42-6.66-15.56-10.07c-1.17-0.77-2.14-1.75-2.33-3.04c3.71,3.15,8.08,5.1,12.61,6.86
	c2.97,1.15,5.94,2.35,8.77,3.77c7.57,3.79,11.61,9.44,13.5,16.15c0.07,0.26-0.03,0.54-0.09,1.25
	C794.87,402.7,792.27,400.27,789.92,397.7z M818.03,416.35c0.04,0.23,0.08,0.47,0.12,0.7c-1.7-0.19-3.41-0.37-5.11-0.56
	c-0.01-0.17-0.02-0.33-0.04-0.5L818.03,416.35z M846.11,391.71c3.44-1.07,6.87-2.17,10.21-3.41c1.26-0.47,2.29-1.31,3.34-2.06
	c3.82-2.74,7.61-5.51,11.7-8.48c-0.96,2.26-2.44,3.77-4.5,4.81c-3.66,1.85-6.42,4.42-8.76,7.34c-3.01,3.75-7.06,6.59-11.4,9.19
	c-1.87,1.12-3.99,1.48-6.55,1.22c-1.77-0.18-3.51,0.22-5.55,0.39C837.55,396.78,840.78,393.37,846.11,391.71z M869.07,392.6
	c-2.4,7.1-7.72,12.1-15.45,15.28c-2.69,1.11-5.74,1.07-8.91,0.77c-2.56-0.24-5.1-0.25-7.65-0.36c-3.16-0.13-6.31-0.64-9.46-1.06
	c-0.03-0.21-0.07-0.43-0.1-0.64c3.16-1.32,6.29-2.7,9.51-3.93c1.02-0.39,2.32-0.64,3.48-0.47c3.07,0.44,5.63-0.14,7.69-1.58
	c3.26-2.27,6.44-4.62,9.41-7.14c2.45-2.07,4.42-4.54,6.86-6.63c1.73-1.48,3.9-2.61,6.11-3.77
	C870.5,386.41,870.09,389.59,869.07,392.6z"/>
<path class="st3" d="M548.79,161.54c1.94,7.83,6.41,13.38,12.84,17.05c1.83,1.04,3.85,1.32,5.91,1.11c1.9-0.19,3.78-0.18,5.69,0.02
	c1.87,0.19,3.8-0.16,5.68-0.42c0.52-0.07,0.99-0.61,1.47-0.97c0.79-0.6,1.58-0.73,2.42-0.13c0.54,0.38,1.12,0.68,1.63,1.1
	c1.5,1.26,3.11,2.19,5.01,2.46c1.5,0.21,2.04,1.75,2.84,3.09c-0.54-0.15-1.08-0.31-1.62-0.45c-1.9-0.49-3.79-0.48-5.64,0.22
	c-0.73,0.27-1.46,0.66-1.37,1.71c0.09,0.99,0.82,1.36,1.58,1.52c0.62,0.14,1.27,0.24,1.89,0.15c1.88-0.26,3.76-0.59,5.63-0.97
	c1.02-0.2,1.92-0.23,2.72,0.67c1.76,1.98,3.98,3.05,6.33,3.82c1.11,0.37,2.22,0.72,3.31,1.16c1.36,0.55,2.53,1.37,3.64,2.49
	c1.63,1.66,3.06,3.46,4.35,5.44c0.22,0.33,0.8,0.64,1.13,0.55c0.63-0.18,0.65-0.9,0.4-1.44c-0.46-1.01-0.89-2.12-1.6-2.9
	c-1.39-1.52-2.87-2.97-4.47-4.2c-1.07-0.82-2.4-1.25-3.64-1.75c-1.57-0.63-3.17-1.16-4.8-1.74c-0.25-1.42-0.45-2.75-0.73-4.06
	c-0.32-1.51,0.07-2.77,0.89-3.95c1.68-2.47,3.97-4.08,6.37-5.52c1.07-0.64,2.18-1.19,3.3-1.7c3.07-1.4,5.3-3.85,6.99-6.93
	c2.23-4.08,4.12-8.34,5.13-13.01c0.38-1.74,0.56-3.53,0.8-5.3c0.06-0.43,0.05-0.92-0.06-1.33c-0.09-0.32-0.37-0.72-0.63-0.78
	c-0.26-0.06-0.68,0.16-0.88,0.41c-0.33,0.43-0.56,0.97-0.81,1.48c-0.53,1.07-1.01,2.17-1.57,3.21c-1.49,2.77-3.79,4.44-6.36,5.72
	c-2.16,1.08-4.39,2.01-6.48,3.25c-5.68,3.36-8.48,8.84-9.1,15.81c-0.06,0.63-0.07,1.34,0.12,1.91c1.01,2.94,0.42,6.1,1.24,9.29
	c-0.43-0.17-0.7-0.2-0.89-0.36c-3.38-2.87-5.88-6.66-8.88-10.15c0.58-0.76,1.05-1.38,1.53-2c1.17-1.55,2.13-3.23,2.25-5.31
	c0.04-0.75-0.01-1.57-0.26-2.25c-0.56-1.48-1.75-1.63-2.73-0.45c-1.18,1.42-1.68,3.2-2.04,5.03c-0.13,0.67-0.23,1.34-0.36,2.13
	c-1.02-0.92-1.45-1.95-1.35-3.18c0.29-3.78,0.79-7.51,1.98-11.09c0.5-1.5,1.36-2.45,2.86-2.69c1.54-0.25,3.05-0.75,4.59-0.98
	c5.23-0.79,9.44-3.65,13.02-7.79c0.98-1.13,1.67-2.5,1.82-4.08c0.23-2.42,0.42-4.85,0.49-7.28c0.11-3.59,0.02-7.19,0.15-10.78
	c0.11-3.07-0.28-6.01-1.2-8.89c-0.08-0.24-0.09-0.54-0.24-0.72c-0.25-0.3-0.58-0.52-0.87-0.77c-0.2,0.34-0.44,0.66-0.58,1.03
	c-0.08,0.21-0.01,0.51,0.02,0.76c0.35,3.19-0.59,6.09-1.68,8.93c-0.59,1.53-1.24,3.05-2,4.48c-0.55,1.04-1.19,2.09-2,2.87
	c-2.27,2.18-4.53,4.4-7,6.27c-2.53,1.92-4.42,4.31-5.63,7.38c-1.27,3.24-2.4,6.53-2.75,10.1c-0.09,0.92-0.63,1.78-0.82,2.71
	c-0.55,2.69-1.03,5.39-1.54,8.09c-0.03,0.18-0.11,0.35-0.23,0.75c-0.26-0.39-0.46-0.63-0.59-0.91c-2.23-4.73-3.33-9.83-3.99-15.08
	c-0.14-1.14-0.6-2.46-0.25-3.39c0.34-0.92,1.55-1.43,2.33-2.18c0.73-0.71,1.48-1.44,2.07-2.28c0.41-0.59,0.67-1.43,0.08-2.12
	c-0.61-0.71-1.32-0.37-1.9,0.06c-1,0.75-1.94,1.6-3.03,2.51c-0.06-0.41-0.17-0.75-0.13-1.07c0.21-2.11,0.47-4.19,1.3-6.15
	c0.79-1.85,1.31-3.86,2.18-5.65c1.23-2.55,2.67-4.91,5.51-5.67c1.51-0.4,2.97-1.08,4.38-1.81c3.03-1.57,4.71-4.41,5.76-7.82
	c1.39-4.53,1.46-9.07,0.14-13.62c-1.34-4.65-2.75-9.27-4.11-13.91c-0.54-1.83-1.04-3.68-1.56-5.51c-0.14-0.49-0.24-1.01-0.49-1.43
	c-0.15-0.26-0.57-0.53-0.82-0.48c-0.24,0.05-0.5,0.47-0.59,0.79c-0.1,0.35-0.01,0.76-0.02,1.15c-0.09,4.1-0.14,8.2-0.3,12.3
	c-0.04,1-0.32,2.05-0.71,2.95c-1.14,2.67-2.23,5.38-3.62,7.88c-2.33,4.2-3.35,8.69-3.17,13.57c0.04,1.09,0.06,2.18,0.07,3.27
	c0.02,2.15-0.4,4.16-1.26,6.12c-1.11,2.53-2.03,5.17-3.04,7.76c-0.11,0.28-0.22,0.56-0.33,0.83c-0.11-0.03-0.22-0.06-0.33-0.09
	c-0.16-1.31-0.4-2.61-0.48-3.92c-0.22-4.06-0.91-8.02-1.8-11.95c-0.32-1.41-0.41-2.77-0.07-4.17c1.46-6.05,1.17-12.08-0.14-18.1
	c-0.9-4.13-1.93-8.21-3.64-12.02c-0.51-1.15-1.04-2.31-1.72-3.34c-2.07-3.16-4.21-6.28-6.34-9.39c-1.99-2.91-4-5.8-6.02-8.69
	c-0.46-0.66-0.93-1.31-1.48-1.88c-0.2-0.21-0.76-0.34-0.91-0.19c-0.25,0.24-0.47,0.79-0.39,1.11c0.23,0.99,0.56,1.96,0.95,2.89
	c1.76,4.16,2.56,8.51,2.16,13.1c-0.34,3.88,0.08,7.69,0.83,11.47c0.64,3.26,1.27,6.52,1.92,9.78c0.39,1.99,1.23,3.74,2.41,5.27
	c2.18,2.82,4.48,5.54,6.59,8.42c1.56,2.13,2.94,4.44,4.32,6.72c0.32,0.53,0.35,1.29,0.58,2.21c-0.61-0.26-0.97-0.54-1.33-0.53
	c-0.42,0.01-1.01,0.14-1.19,0.46c-0.19,0.32-0.13,1.08,0.11,1.39c0.47,0.63,1.05,1.25,1.71,1.56c1.12,0.53,1.46,1.39,1.6,2.65
	c0.45,4.07,1.02,8.13,1.52,12.2c0.26,2.13,0.47,4.26,0.72,6.58c-0.27-0.25-0.45-0.33-0.51-0.48c-1.39-3.43-3.78-6.12-5.55-9.27
	c-0.38-0.68-0.66-1.49-0.8-2.28c-0.93-5.26-2.87-10.02-5.77-14.28c-0.86-1.27-1.94-2.37-2.95-3.5c-3.53-3.97-7.16-7.85-10.57-11.94
	c-1.35-1.62-2.24-3.72-3.32-5.61c-0.28-0.49-0.43-1.07-0.74-1.52c-0.21-0.31-0.61-0.67-0.91-0.65c-0.61,0.03-0.61,0.66-0.56,1.18
	c0.05,0.45,0.13,0.89,0.23,1.32c0.75,3.39,0.98,6.83,0.94,10.31c-0.06,5.08,0.1,10.16,1.44,15.07c1.01,3.71,2.73,6.92,5.78,9.07
	c2.17,1.53,4.6,2.02,7.08,2.3c2.23,0.25,4.48,0.33,6.72,0.52c0.88,0.08,1.7,0.34,2.28,1.19c2.92,4.32,5.76,8.68,7.21,13.93
	c0.07,0.24,0.09,0.49,0.17,0.89c-0.7-0.17-1.3-0.43-1.9-0.41c-0.37,0.01-0.85,0.36-1.04,0.72c-0.1,0.19,0.21,0.87,0.48,1.06
	c0.63,0.43,1.34,0.83,2.05,0.99c1.28,0.28,1.78,1.27,2.18,2.45c0.63,1.86,1.26,3.72,1.94,5.57c1.43,3.92,3.8,7.16,6.05,10.49
	c0.28,0.41,0.56,0.81,0.83,1.22c0.02,0.03-0.03,0.12-0.11,0.4c-0.65-0.39-1.33-0.7-1.9-1.16c-1.9-1.5-3.86-2.78-6.19-3.34
	c-1.57-0.37-2.79-1.4-3.69-2.97c-1.51-2.66-3.11-5.25-5.25-7.37c-1.57-1.55-3.25-2.83-5.24-3.66c-2.21-0.92-4.35-2.05-6.48-3.18
	c-0.66-0.35-1.2-0.98-1.78-1.52c-1.87-1.72-3.7-3.49-5.59-5.17c-1.65-1.46-2.94-3.24-4.13-5.16c-0.41-0.66-0.76-1.71-1.65-1.4
	c-0.94,0.33-0.79,1.49-0.76,2.34c0.02,0.74,0.33,1.48,0.53,2.21c0.33,1.22,0.74,2.43,1.01,3.67
	C547.62,155.91,548.09,158.76,548.79,161.54z M554.74,123.27c1.41,2.64,3.02,5.15,4.38,7.82c1.2,2.35,2.73,4.25,4.85,5.58
	c1.14,0.72,2.21,1.58,3.31,2.38l-0.14,0.4c-2.45-0.19-4.91-0.22-7.34-0.6c-3.59-0.57-6.65-2.32-8.37-6.06
	c-0.88-1.92-1.58-4-2.02-6.1c-0.95-4.58-1.03-9.27-0.93-13.95c0.01-0.4,0.11-0.8,0.18-1.25C550.74,115.5,552.7,119.41,554.74,123.27
	z M568.84,138.26c-3.45-2.51-6.01-5.44-8.28-8.84c-2.93-4.39-5.33-9.13-8.04-13.67c-0.78-1.3-1.35-2.76-2.02-4.15
	c0.11-0.09,0.21-0.17,0.32-0.26c0.59,0.66,1.18,1.33,1.76,1.99c2.51,2.83,4.85,5.87,7.56,8.45c3.03,2.88,5.16,6.35,6.82,10.27
	C567.76,133.93,568.58,135.83,568.84,138.26z M572.54,118.55c-0.32-0.12-0.46-0.12-0.53-0.2c-2.49-3.11-4.97-6.23-7.47-9.34
	c-1.38-1.72-2.3-3.69-2.74-5.93c-0.67-3.38-1.33-6.77-1.96-10.16c-0.62-3.34-0.86-6.71-0.61-10.14c0.23-3.14,0.06-6.29-0.8-9.34
	c-0.04-0.13,0.03-0.29,0.08-0.6c0.81,1.08,1.54,1.98,2.21,2.94c2.61,3.75,5.22,7.51,7.8,11.29c0.48,0.71,0.87,1.52,1.22,2.32
	c2.72,6.25,4.27,12.88,4.82,19.77c0.2,2.47,0.15,4.98-0.64,7.89c-0.69-1.77-1.12-3.16-1.74-4.43c-2.18-4.46-3.39-9.22-3.98-14.25
	c-0.24-2.01-0.79-4.02-1.49-5.89c-1.44-3.85-3.07-7.61-4.63-11.4c-0.51-1.24-1.05-2.47-1.58-3.7c0.65,3.98,1.48,7.85,3.1,11.43
	c1.78,3.92,3.24,7.94,3.43,12.41c0.03,0.57,0.2,1.13,0.29,1.7c0.59,3.85,2.06,7.33,3.6,10.79
	C571.58,115.22,572.19,116.76,572.54,118.55z M591.82,96.06c0.8,5.01,0.58,7.22-1.3,12.51c0,0.08-0.01,0.16-0.03,0.25
	c-0.2,0.94-0.37,1.88-0.66,2.78c0.02,0.07,0.05,0.15,0.06,0.23c-0.37,1.06-0.68,2.53-1.36,3.76c-1.32,2.38-2.84,4.63-4.36,7.05
	c-0.07-0.23-0.16-0.41-0.18-0.59c-0.28-4.53,0.51-8.78,2.66-12.7c2.25-4.11,4.46-8.26,4.94-13.19
	C591.61,96.12,591.74,96.09,591.82,96.06z M584.5,126.89c0.19-0.68,0.25-1.05,0.39-1.37c1.12-2.53,2.25-5.03,3.8-7.31
	c0.89-1.31,1.48-2.86,2.17-4.33c0.12-0.26,0.1-0.61,0.14-0.92c0.06,0.05,0.11,0.11,0.16,0.16c0-0.03,0-0.06,0.01-0.09
	c0.18-1.06,0.23-2.15,0.51-3.18c0.03-0.12,0.08-0.22,0.14-0.31c0.03-0.69,0.22-1.43,0.56-2.24c1.27-2.96,1.56-6.13,1.1-9.38
	c-0.09-0.66-0.05-1.34-0.08-2.27c0.24,0.4,0.38,0.54,0.42,0.71c1.06,3.85,2.21,7.68,3.12,11.58c0.67,2.84,0.28,5.69-0.69,8.72
	c-0.01-0.01-0.01-0.02-0.02-0.02c0.07,0.34,0,0.63-0.16,0.85c-0.81,2.73-1.96,4.75-3.87,6.03
	C589.92,125.05,587.31,125.83,584.5,126.89z M591.35,154.97c0.57-0.65,1.2-1.18,1.87-1.64c1.81-1.25,3.68-2.4,5.44-3.72
	c0.79-0.59,1.52-1.4,2.06-2.28c1.68-2.76,3.26-5.59,4.85-8.42c0.77-1.38,1.2-2.9,1.3-4.54c0.08-1.41,0.33-2.81,0.29-4.21
	c-0.06-2.27,0.77-4.21,1.79-6.23c0.02,0.5,0.06,1,0.05,1.5c-0.06,4.55-0.11,9.09-0.21,13.64c-0.03,1.47-0.13,2.94-0.32,4.4
	c-0.25,1.97-1.03,3.67-2.47,4.91c-1.5,1.3-2.98,2.64-4.57,3.78C598.39,154.34,594.89,154.68,591.35,154.97z M588.49,154.92
	c0.7-2.09,1.29-4,1.97-5.87c1.07-2.92,2.66-5.38,5.19-6.97c0.4-0.25,0.74-0.61,1.1-0.92c3.04-2.61,6.09-5.19,8.64-8.87
	c0.06,2.02-0.04,3.65-0.83,5.13c-1.03,1.93-2.18,3.78-3.12,5.76c-1.67,3.49-4.31,5.75-7.3,7.67
	C592.31,152.03,590.58,153.4,588.49,154.92z M588.57,174.92c0.07-2.42,0.31-4.79,2.05-6.6
	C591.15,170.96,589.89,172.95,588.57,174.92z M600.5,177.6c1.58-2.36,3.12-4.75,4.74-7.08c0.7-1.01,1.41-2.14,2.36-2.77
	c3.74-2.49,6.85-5.89,10.41-8.63c0.29-0.22,0.6-0.42,1.15-0.81c-1.02,3.06-2.37,5.52-3.7,7.99c-1.54,2.86-3.64,4.92-6.41,6.21
	c-2.46,1.14-4.84,2.43-6.92,4.33c-0.43,0.39-0.94,0.67-1.41,1C600.64,177.76,600.57,177.68,600.5,177.6z M598.63,177.21
	c-0.09-0.62-0.18-0.87-0.15-1.09c0.72-5.76,2.94-10.52,7.61-13.49c1.75-1.11,3.61-2.03,5.46-2.91c2.84-1.34,5.56-2.86,7.75-5.44
	c-0.02,1.12-0.59,1.93-1.29,2.55c-3.12,2.75-6.18,5.59-9.44,8.11c-2.12,1.64-3.98,3.44-5.46,5.8
	C601.77,172.87,600.26,174.88,598.63,177.21z M589.39,185.69c0.01,0.14,0.01,0.29,0.02,0.43c-1.1,0.09-2.21,0.18-3.31,0.27
	c0.01-0.2,0.02-0.4,0.03-0.6L589.39,185.69z M574.03,171.46c-1.35-0.23-2.52-0.66-3.67-0.57c-1.66,0.12-3.08-0.29-4.39-1.34
	c-3.05-2.45-5.93-5.1-8.19-8.49c-1.76-2.64-3.77-5-6.32-6.76c-1.43-0.99-2.52-2.37-3.32-4.38c2.92,2.76,5.61,5.34,8.33,7.88
	c0.75,0.7,1.49,1.48,2.35,1.94c2.28,1.22,4.62,2.33,6.96,3.4C569.41,164.8,571.79,167.91,574.03,171.46z M549.07,154.6
	c1.54,1.11,3.05,2.18,4.3,3.54c1.76,1.92,3.24,4.15,5.01,6.06c2.15,2.32,4.42,4.5,6.73,6.61c1.46,1.34,3.19,1.96,5.17,1.7
	c0.75-0.1,1.63,0.18,2.32,0.55c2.21,1.2,4.37,2.54,6.55,3.82c-0.01,0.18-0.01,0.37-0.02,0.55c-2.04,0.23-4.06,0.54-6.13,0.52
	c-1.67-0.01-3.34-0.12-4.99-0.01c-2.05,0.13-4.05,0.03-5.9-1.05c-5.32-3.1-9.19-7.68-11.32-13.97
	C549.88,160.27,549.37,157.49,549.07,154.6z"/>
<path class="st3" d="M734.06,258.23c2.3-3.48,5.16-5.89,8.05-8.37c2.04-1.75,3.78-3.98,5.45-6.19c2.82-3.72,6.13-6.63,9.96-9.01
	c2.64-1.64,5.2-3.66,7.31-6.04c4.15-4.69,8.81-7.77,14.84-8.24c2.35-0.18,4.64-1.11,6.97-1.68c0.88-0.22,1.77-0.51,2.66-0.52
	c0.48-0.01,1.26,0.39,1.38,0.8c0.18,0.6,0.06,1.48-0.24,2.04c-0.33,0.61-1,0.99-1.52,1.47c-2.96,2.75-6.09,5.29-8.81,8.3
	c-2.3,2.55-4.18,5.59-6.15,8.5c-2.65,3.92-5.1,8.01-7.85,11.84c-2.32,3.24-5.45,5.21-9.16,6.1c-5.12,1.23-9.99,3.14-14.5,6.29
	c-3.58,2.5-5.72,6.42-8.6,9.58c-0.43,0.47-0.29,1.67-0.28,2.53c0.1,8.73,0.97,17.34,3.03,25.79c0.73,2.99,1.45,6.02,1.08,9.57
	c-2.03-0.9-2.59-2.62-3.02-4.41c-2.58-10.76-4.41-21.65-4.06-32.83c0.1-3.3-0.77-6.31-1.89-8.98c-2.17-5.15-4-10.75-8.74-14.06
	c-1.53-1.06-2.84-2.51-4.25-3.77c-3.75-3.33-5.74-7.75-6.3-12.96c-0.38-3.5-0.53-7.03-0.88-10.54c-0.59-6-1.24-11.99-1.88-17.98
	c-0.07-0.62-0.34-1.29-0.22-1.85c0.14-0.66,0.5-1.53,0.98-1.75c0.46-0.21,1.37,0.08,1.76,0.51c0.8,0.87,1.38,1.98,2.04,3
	c3.37,5.22,6.64,10.51,10.12,15.63c3.14,4.64,5.41,9.66,5.84,15.48c0.3,4.13,1.85,7.4,5,10.52c0.4-1.96,0.78-3.59,1.05-5.25
	c2.16-12.93,2.91-25.97,2.91-39.12c0-6.6-2.47-11.3-7.08-14.82c-4.48-3.42-7.17-8.06-8.15-13.86c-1.32-7.81-0.47-15.57,0.93-23.27
	c0.2-1.09,0.45-2.35,1.84-2.27c1.29,0.07,1.64,1.2,1.82,2.35c0.66,4.47,2.7,8.25,4.73,12.06c2.07,3.88,4.08,7.78,6.4,12.21
	c0.22-1.23,0.37-2,0.49-2.77c0.78-5.1,1.46-10.21,2.37-15.28c0.46-2.55,0.46-4.98-0.21-7.45c-0.62-2.29-1.17-4.61-1.77-6.91
	c-1.62-6.26-2-12.64-1.53-19.1c0.3-4.06,1.34-7.9,2.97-11.56c3.32-7.44,7.19-14.6,9.38-22.63c0.23-0.84,1.33-1.4,2.03-2.08
	c0.5,0.75,1,1.5,1.48,2.26c0.06,0.1,0.07,0.24,0.08,0.36c0.69,13.05,3.31,25.97,1.82,39.17c-0.76,6.77-2.88,12.93-5.78,18.83
	c-0.82,1.66-1.67,3.31-2.69,4.82c-2.69,3.96-3.83,8.49-4.3,13.32c-0.47,4.74-1,9.48-0.97,14.44c1.54-2.06,2.82-4.47,4.67-6.1
	c7.58-6.71,12.33-15.67,16.79-24.93c1.01-2.1,2.18-4.14,3.5-6.01c0.53-0.75,1.77-1.49,2.51-1.31c1.38,0.34,1.13,1.92,1.01,3.18
	c-0.05,0.5-0.17,0.99-0.25,1.49c-1.31,7.68-2.63,15.35-3.93,23.03c-1.1,6.55-3.03,12.64-7.43,17.49c-2.23,2.45-4.67,4.4-7.7,5.34
	c-2.61,0.81-4.68,2.4-6.37,4.77c-0.88,1.22-2.11,2.12-3.62,3.59c-0.16,7.34-0.33,15.3-0.5,23.27c0.15,0.05,0.29,0.1,0.44,0.14
	c0.31-0.59,0.65-1.16,0.92-1.77c6.84-16.03,16.21-29.99,27.91-42.02c1.64-1.69,2.62-3.65,3.34-5.99c1.16-3.81,2.52-7.56,4.03-11.22
	c2.51-6.11,6.85-10.4,12.13-13.31c4.9-2.7,10.15-2.19,15.31-0.6c3.27,1.01,6.5,2.27,9.81,3.06c2.65,0.63,5.4,0.71,8.1,1.05
	c0.56,0.07,1.13,0.12,1.69,0.25c1.3,0.3,2.97,0.22,3.08,2.26c0.09,1.71-1.34,2.2-2.46,2.73c-1.35,0.65-2.73,1.33-4.15,1.68
	c-7.5,1.86-14.27,5.73-21.11,9.42c-5.92,3.19-11.8,6.33-18.51,7.27c-2.52,0.35-5.31,1.97-7.17,3.94
	c-5.24,5.56-10.07,11.61-15.05,17.47c-0.28,0.33-0.41,0.8-0.94,1.85c4.39-1.93,8.36-2.93,11.65-6.1c5.59-5.37,11.95-8.95,19.52-9.8
	c5.64-0.63,11.23-1.71,16.94-1.24c2.95,0.24,4.4,1.02,4.39,2.59c-0.01,2.48-1.98,2.88-3.51,3.49c-5.71,2.27-10.43,6.03-14.32,11.16
	c-4.15,5.48-9.46,8.87-15.62,10.91c-5.77,1.92-11.38,1.95-16.97-0.64c-1.36-0.63-2.74-1.24-4.14-1.72
	c-2.78-0.95-3.15-0.78-4.69,1.95c-4.52,8.04-8.41,16.47-11.13,25.44c-1.69,5.58-2.61,11.46-3.78,17.23
	C734.06,255.2,734.14,256.73,734.06,258.23z M812.94,158.65c-5.36-0.6-10.38-1.55-15.4-1.61c-3.75-0.05-7.33,1.37-9.84,5
	c-2.06,2.98-4.31,5.81-6.47,8.71c-0.62,0.82-1.25,1.62-2.01,2.6c3.65,0.09,5.43-0.33,10.65-2.94c5.58-2.8,11.08-5.78,16.64-8.64
	C808.53,160.71,810.6,159.77,812.94,158.65z M759.26,207.01c10.83,6.33,26.94-2.34,31.76-12.69c-6.03,0.49-11.56,2.86-16.1,7.18
	c-3.91,3.72-8.36,4.73-13.14,5.25C760.94,206.85,760.1,206.92,759.26,207.01z M782.38,223.8c-3-0.55-4.4,1.01-5.82,2.65
	c-6.13,7.06-11.15,15.21-17.73,21.85c-2.33,2.35-4.67,4.21-7.66,5.32c-3,1.11-5.91,2.56-8.77,4.06c-1.82,0.95-3.32,2.46-4.44,5.05
	c2.2-1.52,3.88-3.09,5.82-3.94c4.2-1.85,8.5-3.46,12.82-4.91c2.46-0.83,4.73-1.82,6.35-4.09c2.61-3.63,5.46-7.1,7.65-11.02
	c2.48-4.45,5.32-8.44,8.83-11.9C780.27,226.03,781.07,225.16,782.38,223.8z M759.3,203.32c5.02-0.41,9.51-0.48,13.6-4.21
	c4.16-3.8,8.9-6.83,14.6-7.43c2.55-0.26,5.06-1.32,7.52-2.25c1.21-0.45,2.26-1.42,3.38-2.15c-0.1-0.27-0.19-0.53-0.29-0.8
	c-6.68,0.69-13.4,1.18-19.77,3.96c-1.14,0.5-2.15,1.39-3.22,2.1c-5,3.34-9.15,8.29-15.1,9.85
	C759.86,202.45,759.74,202.76,759.3,203.32z M745.68,106.04c-8.13,11.05-8.81,27.44-4.04,38.2c0.72-5.64,1.66-11.03,2.03-16.47
	C744.17,120.53,743.87,113.21,745.68,106.04z M776.09,224.79c-3.96,1.04-4.79,1.5-7.64,4.62c-3.31,3.63-6.7,7-11.04,9.2
	c-2.29,1.16-4.22,3.33-6.08,5.31c-1.87,1.98-3.47,4.28-5.18,6.45c-0.43,0.55-0.82,1.14-1.66,2.33c3.6-1.48,6.8-2.09,9.21-3.97
	c3.48-2.71,6.43-6.27,9.49-9.59c1.85-2.01,3.4-4.34,5.23-6.37C770.72,230.22,773.16,227.82,776.09,224.79z M745.56,144.49
	c7.17-13.24,6.01-27.42,3.92-41.71c-0.56,1.02-0.69,2.12-0.95,3.17c-2,8.14-1.45,16.52-1.99,24.8
	C746.25,135.33,745.89,139.91,745.56,144.49z M740.93,188.26c5.26-4.86,10.02-9.59,13.94-15.28c1.1-1.59,2.57-2.99,3.27-4.77
	c1.69-4.33,3.03-8.83,4.51-13.26c-1.31,1.33-2.22,2.89-3.01,4.52c-2.65,5.49-6.06,10.28-10.31,14.36c-1.53,1.48-3.04,3.04-4.31,4.79
	C743.05,181.31,741.38,184.24,740.93,188.26z M712.33,213.67c-0.2,0.13-0.4,0.25-0.6,0.38c1.07,2.56,1.9,5.28,3.26,7.63
	c2.57,4.43,4,9.25,4.87,14.36c0.2,1.19,0.67,2.43,1.31,3.4c2.27,3.44,4.65,6.78,7.02,10.14c0.4,0.57,0.93,1.02,1.4,1.52
	c-0.28-1.84-0.86-3.4-1.84-4.51c-2.12-2.38-2.86-5.26-3.34-8.44c-0.47-3.07-1.11-6.17-2.14-9.05
	C720.08,223.08,715.44,218.99,712.33,213.67z M775.59,171.66c2.85-3.32,6.71-5.6,8.09-10.31c0.23-0.78,0.83-1.54,1.43-2.05
	c4.98-4.15,10.37-6.71,16.78-5.19c1.18,0.28,2.39,0.43,3.59,0.64c-8.75-5.14-16.31-3.92-23.08,3.19
	C778.86,161.69,776.89,166.44,775.59,171.66z M743.04,191.32c10.89-3.53,16.64-10.1,17.28-19.4c-1.67-0.38-2.67,0.46-3.58,1.98
	c-3.19,5.33-6.56,10.49-11.26,14.38C744.64,188.97,744.05,190.04,743.04,191.32z M711.93,221.42c-0.23,0.05-0.47,0.1-0.7,0.15
	c0.52,4.83,0.91,9.69,1.62,14.48c0.41,2.76,1.63,5.28,3.58,7.16c2.69,2.59,5.47,5.06,8.21,7.58c-0.9-2.47-1.93-4.83-3.55-6.46
	c-2.81-2.84-3.93-6.29-4.47-10.28C715.98,229.43,714.17,225.3,711.93,221.42z M733.96,186.83c-1.75-4.32-2.77-8.33-4.84-11.52
	c-1.7-2.63-2.78-5.37-3.76-8.28c-0.51-1.5-0.94-3.02-1.59-5.11C722,173.72,725.75,183.07,733.96,186.83z M729.07,167.88
	c1.1,5.5,2.38,8.14,4.81,10.2C733.11,174.02,731.09,170.92,729.07,167.88z"/>
<path class="st3" d="M806.12,231.15c0.2-4.34,0.23-8.71,0.63-13.03c0.43-4.6,0.98-9.21,1.92-13.7c0.52-2.5,1.76-4.89,3-7.11
	c1.04-1.86,2.75-2.95,4.89-2.51c2.2,0.46,3.11,2.34,3.59,4.47c0.98,4.26,0.63,8.43-1.1,12.39c-2.39,5.47-4.86,10.9-7.28,16.35
	c-0.3,0.68-0.55,1.39-1.02,1.53c2.27-1.43,4.53-2.88,6.81-4.29c2.39-1.48,3.74-1.54,4.93-0.27c1.21,1.29,1.66,3.88,0.4,5.89
	c-1.33,2.12-3.1,3.96-4.88,5.66c-2.71,2.58-5.65,4.84-8.36,7.42c-0.93,0.89-1.74,2.22-2.09,3.52c-0.95,3.53-1.63,7.15-2.54,11.26
	c1.07-0.44,1.81-0.66,2.47-1.04c1.69-0.97,3.3-2.17,5.05-2.97c1.85-0.85,3.8-1.55,5.77-1.95c1.63-0.33,3.07,0.46,3.78,2.3
	c0.67,1.75-0.07,3.14-1.17,4.24c-0.88,0.87-1.91,1.59-2.95,2.2c-5.05,2.96-10.14,5.85-15.19,8.82c-0.68,0.4-1.43,1.03-1.73,1.77
	c-1.85,4.42-3.59,8.9-5.56,13.84c1.06-0.27,1.79-0.42,2.5-0.63c4.24-1.29,8.45-2.68,12.72-3.85c1.22-0.33,2.63-0.26,3.88,0.01
	c2.5,0.53,3.31,2.49,2.15,5.02c-0.48,1.04-1.14,2.08-1.95,2.8c-6.66,5.96-13.86,10.72-22.59,11.9c-0.94,0.13-1.9,0.23-2.85,0.22
	c-0.82-0.01-1.64-0.19-2.72-0.33c-1.5,2.05-3.05,4.17-5.08,6.94c1.56-0.24,2.42-0.36,3.28-0.5c3.76-0.6,7.52-1.6,11.29-1.68
	c2.64-0.06,5.52,0.59,7.91,1.84c4.37,2.29,4.6,7.39,0.57,10.39c-1.83,1.36-4.06,2.38-6.23,2.78c-8.17,1.5-16.14,0.82-23.91-4
	c-2.3,2.39-4.61,5.01-7.14,7.36c-5.48,5.08-11.03,10.05-16.63,14.97c-1.65,1.46-3.54,2.53-6.61,1.21
	c10.28-8.17,19.8-16.26,27.94-26.16c0.45-2.58-0.73-4.5-2.17-6.35c-1.33-1.7-2.68-3.4-3.86-5.22c-3.54-5.45-5.2-11.58-5.02-18.28
	c0.03-1.29,0.3-2.65,0.77-3.82c1.35-3.36,4.49-4.45,7.46-2.76c2.85,1.61,4.42,4.36,5.5,7.54c2.05,5.99,1.99,12.19,1.46,18.43
	c-0.14,1.65-0.31,3.3-0.47,4.94c0.27,0.13,0.54,0.26,0.8,0.4c2.97-4.01,5.94-8.03,9-12.16c-1.34-3.3-2.57-6.45-3.9-9.55
	c-2.09-4.9-2.98-10.08-2.71-15.44c0.12-2.33,0.55-4.76,1.36-6.9c1.68-4.43,5.77-5.47,9.08-2.36c1.22,1.14,2.31,2.8,2.8,4.46
	c1.07,3.61,1.72,7.38,2.7,11.79c1.11-3.04,2.23-5.58,2.91-8.27c0.27-1.05-0.25-2.54-0.77-3.61c-2.09-4.32-4.42-8.5-6.48-12.83
	c-1.97-4.14-3.2-8.56-3.39-13.27c-0.04-1.04-0.02-2.16,0.28-3.11c0.7-2.21,2.55-2.86,4.28-1.49c0.95,0.75,1.79,1.76,2.51,2.8
	c2.87,4.17,4.87,8.79,5.69,14c0.28,1.8,0.64,3.58,1.3,5.42c1.48-3.57,2.22-7.35,2.8-11.14c0.11-0.73-0.88-1.77-1.5-2.52
	c-3.81-4.64-7.03-9.72-9.38-15.43c-1.6-3.88-2.81-7.9-2.88-12.21c-0.02-1.04,0-2.15,0.28-3.12c0.78-2.65,3.01-3.69,5.11-2.13
	c1.54,1.14,3.09,2.67,3.98,4.43c1.79,3.57,3.15,7.4,4.65,11.15c0.47,1.18,0.81,2.42,1.21,3.64
	C805.66,231.18,805.89,231.16,806.12,231.15z M787.43,292.73c0.55-0.45,0.76-0.57,0.9-0.75c0.16-0.19,0.29-0.43,0.37-0.67
	c2.46-7.49,3.37-15.06,0.62-22.73c-0.3-0.84-0.68-1.79-1.29-2.33c-0.86-0.76-2.06-1.78-2.93-1.6c-0.89,0.19-1.84,1.55-2.25,2.64
	c-0.54,1.42-0.69,3.06-0.8,4.63C781.53,279.48,784.15,286.06,787.43,292.73z M777.08,314.73c7.49,3.46,14.75,4.21,22.2,2.24
	c1.33-0.35,2.63-1.23,3.72-2.18c1.6-1.39,1.49-3.1-0.3-4.04c-1.46-0.77-3.14-1.27-4.75-1.42c-6.91-0.66-13.33,1.8-19.77,4.07
	C777.9,313.51,777.72,313.95,777.08,314.73z M772.6,305.84c0.98-7.6,1.22-14.46-1.58-21.05c-0.4-0.94-0.92-2-1.65-2.54
	c-1.02-0.75-2.35-1.56-3.47-1.45c-1.52,0.16-1.78,2-1.81,3.46C763.93,292.63,766.75,299.59,772.6,305.84z M813.53,285.58
	c-0.08-0.3-0.16-0.61-0.24-0.91c-1.12,0.13-2.27,0.12-3.34,0.43c-3.45,1.01-6.88,2.06-10.29,3.23c-4.75,1.63-8.33,4.75-10.17,10.65
	C798.55,296.21,806.95,292.87,813.53,285.58z M809.79,224.47c2.29-5.13,4.43-9.53,6.21-14.09c0.83-2.12,1.15-4.56,1.39-6.89
	c0.18-1.77,0.05-3.68-1.37-5.15c-2.16,0.45-2.83,2.39-3.46,4.15C810.13,209.33,809.85,216.52,809.79,224.47z M793.94,215.24
	c-1.78,5.96,4.05,20.8,9.93,25.25C803.23,231.02,798.03,217.8,793.94,215.24z M790.53,240.38c0.15,7.44,3.1,13.71,6.88,19.63
	C797.13,252.65,795.47,245.86,790.53,240.38z M802.46,267.07c0.23,0.16,0.46,0.31,0.68,0.47c2.44-1.85,4.83-3.79,7.34-5.51
	c2.51-1.73,5.14-3.23,7.72-4.84c-0.13-0.24-0.26-0.48-0.38-0.73c-5.1,1.45-9.46,4.62-13.8,7.78
	C803.26,264.78,802.97,266.11,802.46,267.07z M810.65,237.46c3.31-2.69,7.7-4.15,9.26-9.09
	C815.89,230.16,813.01,233.43,810.65,237.46z"/>
<g>
	<path class="st3" d="M552.28,349.2c5.83-1.71,11.64-3.52,17.49-5.1c9.65-2.61,19.28-4,28.82-3.67c5.38,0.18,10.15,1.31,14.09,3.62
		c4.67,2.74,9.3,5.52,13.74,8.45c1.72,1.14,2.93,2.71,4.27,4.15c0.52,0.56,0.9,1.27,1.06,1.99c0.46,2.07-1.32,3.7-4.09,3.47
		c-9.21-0.78-18.71-0.85-27.39-2.89c-9.86-2.31-19.87-4.36-30.76-4.67c-1.22-0.03-2.45-0.07-3.98,0.3c0.63,0.24,1.24,0.51,1.89,0.73
		c8.07,2.65,15.43,6.05,21.91,10.33c4.81,3.18,8.86,6.93,11.63,11.45c0.59,0.95,1.01,2.06,1.05,3.18c0.07,1.89-1.46,2.95-3.78,2.55
		c-2.23-0.38-4.4-0.97-6.37-1.73c-6.4-2.48-13.11-4.46-20.35-5.76c-8.47-1.53-14.36-5.52-18.6-10.94c-1.3-1.67-2.54-3.38-4.53-4.97
		c-0.41,2.18-0.83,4.35-1.14,5.97c2.22,1.45,3.96,2.57,5.66,3.71c3.11,2.09,6.15,4.26,9.31,6.31c9.85,6.39,15.26,14.93,16.94,25.37
		c0.69,4.3,1.8,8.5,2.67,12.75c0.24,1.18,0.84,2.57-1.09,3.52c-2.03,1-2.97-0.3-3.94-1.11c-1.56-1.3-3-2.68-4.43-4.06
		c-6.24-6.01-12.58-11.95-18.61-18.09c-2.27-2.31-3.85-5.07-5.67-7.65c-0.76-1.07-1.33-2.24-2.7-3.16
		c-0.05,2.19-0.12,4.39-0.14,6.58c-0.1,8.89-0.24,17.78-0.27,26.66c-0.04,9.85-0.24,19.77,4.41,28.49c1.87,3.51,4.02,6.9,6.07,10.33
		c0.34,0.57,0.96,1.03,1.17,1.64c0.18,0.54-0.03,1.22-0.06,1.84c-0.88-0.07-1.84-0.03-2.61-0.26c-0.48-0.14-0.69-0.68-0.98-1.07
		c-5.16-6.94-9.49-14.28-10.58-22.75c-0.87-6.76-0.67-13.77-0.72-20.7c-0.07-8.86,0.09-17.76,0.14-26.64c0-0.36-0.06-0.72-0.8-1.08
		c-0.7,1.7-1.34,3.41-2.12,5.11c-1.35,2.91-2.7,5.83-4.21,8.72c-1.52,2.9-3.16,5.78-4.9,8.63c-1.63,2.66-3.4,5.29-5.23,7.9
		c-2.68,3.82-5.48,7.62-8.22,11.43c-0.33,0.46-0.51,1.02-0.96,1.39c-0.52,0.43-1.34,0.98-1.89,0.98c-0.57,0-1.11-0.54-1.4-0.98
		c-0.25-0.37-0.2-0.92-0.15-1.41c0.58-5.76,1.04-11.51,1.84-17.29c0.7-5.05,3.65-9.78,7.95-14.2c1.01-1.04,1.92-2.14,3.06-3.09
		c6.23-5.2,10.18-11.21,14.4-17.19c2.17-3.07,3.73-5.99,4.11-9.16c0.03-0.27-0.09-0.52-0.87-0.93c-0.14,0.45-0.26,0.9-0.41,1.35
		c-2.01,5.82-5.92,11.06-10.82,16.2c-5.79,6.07-10.86,12.47-16.27,18.71c-2.24,2.59-4.55,5.15-6.89,7.7
		c-0.72,0.78-1.55,1.56-2.5,2.19c-1.95,1.29-3.89,1.09-4.57-0.49c-0.32-0.76-0.33-1.67-0.28-2.53
		c1.18-17.93,10.89-33.79,30.26-47.35c3.1-2.17,5.94-4.55,8.9-6.83c-0.11-0.17-0.22-0.33-0.33-0.5c-0.64,0.22-1.31,0.41-1.93,0.68
		c-5.04,2.21-10.3,3.2-15.62,4.18c-14.05,2.59-28.09,5.33-42.14,7.98c-1.79,0.34-3.64,0.7-5.38,0.7c-2.74,0.01-3.8-1.25-2.51-3.27
		c4.39-6.89,10.24-13,19.46-16.8c7.35-3.03,14.9-4.6,22.49-4.18c3.98,0.22,7.92,0.52,11.88,0.78c0.81,0.05,1.62,0.09,2.73-0.28
		c-0.31-0.17-0.58-0.4-0.93-0.49c-10.73-2.99-21.52-5.82-33.36-7c-5.71-0.57-11.03-2.05-16.5-3.16c-0.8-0.16-1.53-0.5-2.17-0.86
		c-4.31-2.43-3.22-6.49,2.46-8.62c2.17-0.81,4.6-1.28,6.88-1.54c13.96-1.61,25.65,1.02,35.39,6.75c5.94,3.5,11.27,7.54,16.88,11.34
		c0.84,0.57,1.69,1.13,3.1,1.46c-0.1-0.58-0.16-1.18-0.3-1.75c-2.02-8.04-4.05-16.08-6.09-24.12c-0.56-2.19-1.17-4.37-1.72-6.56
		c-0.76-3.06-3.31-4.5-7.41-4.81c-7.16-0.53-14.26-1.2-21.36-1.87c-8.89-0.85-15.82-3.94-21.12-8.86c-0.29-0.27-0.76-0.51-0.81-0.85
		c-0.09-0.69-0.23-1.53,0.21-2.13c0.3-0.41,1.67-0.76,2.39-0.71c2.71,0.21,5.31,0.69,8.02,0.91c2.45,0.2,4.95,0.44,7.48,0.19
		c4.53-0.44,8.55,0.07,12.33,1.23c3.72,1.15,7.4,2.34,11.61,3.68c-3.12-3.47-5.65-6.74-8.75-9.63c-5.7-5.31-9.43-11.59-12.9-18.03
		c-2.57-4.76-5.16-9.51-7.58-14.32c-1.1-2.19-1.88-4.52-2.69-6.83c-0.24-0.69-0.26-1.51-0.08-2.28c0.35-1.5,2.18-2.36,3.8-1.76
		c0.93,0.34,1.67,0.94,2.45,1.46c8.4,5.65,14.92,12.45,19.56,20.43c0.76,1.31,1.57,2.62,2.52,3.84c3.89,5,6.69,10.46,8.53,16.33
		c1.88,6.01,3.75,12.01,5.65,18.01c0.34,1.07,0.77,2.12,1.18,3.23c0.33-0.2,0.63-0.31,0.63-0.39c0.36-7.37,3.56-14.75,5.71-22.12
		c0.43-1.48,0.88-2.96,1.4-4.43c0.31-0.88,0.52-1.86,1.21-2.6c0.82-0.89,2.01-1.92,3.2-2.28c1.67-0.5,2.29,0.68,2.77,1.6
		c0.4,0.75,0.75,1.55,0.83,2.39c0.87,9.53,0.95,19.15-2.65,29.14c-0.78,2.16-1.6,4.33-2.67,6.46c-2.55,5.1-3.69,10.18-4.04,15.25
		c-0.12,1.82,0.09,3.63,0.56,5.33c0.66,2.44,1.69,4.78,2.73,7.59c0.63-0.98,1.11-1.56,1.35-2.15c1.19-2.94,2.38-5.88,3.47-8.83
		c3.12-8.5,7.53-16.81,13.43-24.79c2.63-3.56,6.26-6.82,9.51-10.17c0.65-0.67,1.57-1.27,2.49-1.73c1.6-0.81,2.83-0.61,3.35,0.55
		c0.33,0.76,0.53,1.64,0.4,2.5c-0.26,1.66-0.55,3.36-1.25,5c-2.58,6.06-5.37,12.1-7.99,18.16c-2.44,5.64-6.4,10.87-10.53,16.08
		c-2.17,2.73-4.25,5.5-6.27,8.27C551.76,347.37,551.86,347.39,552.28,349.2z M538.28,352.35c0.04-0.29,0.08-0.58,0.12-0.87
		c-11.64,0.71-23.58,3.08-34.97,2.15c9.94-1.53,19.88-3.06,30.25-4.65c-0.65-0.39-0.87-0.64-1.18-0.69
		c-7.76-1.2-15.6-2.21-24.02-1.68c-14.07,0.88-24.61,6.63-32.09,16.62c-0.51,0.69-0.82,1.44-1.33,2.34c1-0.07,1.63-0.06,2.26-0.18
		c6.18-1.11,12.37-2.22,18.54-3.39c10.82-2.04,21.65-4.01,32.44-6.26C531.68,355.05,534.96,353.51,538.28,352.35z M615.33,351.27
		c-0.12,0.21-0.25,0.41-0.37,0.62c-6.43-0.72-12.91-1.34-19.28-2.19c-7.41-0.99-15.08-1.02-22.92-0.54
		c-2.3,0.14-4.64,0.48-6.96,0.87c-2.3,0.39-4.6,0.96-6.91,1.45c0.78,0.38,1.53,0.38,2.28,0.37c9.03-0.12,17.93,0.21,26.24,1.89
		c12.12,2.46,24.07,5.21,37.23,5.58c1.05,0.03,2.11,0.04,3.79,0.07c-0.8-1.11-1.19-1.85-1.81-2.45
		c-5.55-5.43-12.89-9.27-20.77-12.63c-0.81-0.34-1.76-0.54-2.7-0.71c-9.92-1.78-20.29,0.3-30.79,2.76
		C588.03,345.16,601.86,347.83,615.33,351.27z M541.04,362.49c-0.24-0.11-0.47-0.22-0.71-0.34c-3.14,3.38-6.49,6.69-9.37,10.17
		c-2.85,3.44-5.21,7.07-7.79,10.61c2.29-8.02,7.05-15.37,14.53-22.01c-22.4,13.36-33.78,31.94-33.2,49.02
		c2.25-2.51,4.24-4.69,6.17-6.9c6.78-7.73,13.6-15.45,20.29-23.22c1.99-2.31,3.91-4.7,5.3-7.17
		C538.14,369.32,539.48,365.88,541.04,362.49z M598.21,380.4c-4.05-11.56-31.83-24.73-43.25-23.93c4.79,3.18,9.3,6.17,14.33,9.51
		c-6.86-0.5-10.77-3.49-15.15-6.29c-0.07,0.61-0.18,0.83-0.09,0.96c4.34,6.51,10.77,11.22,20.69,12.83c6.09,0.99,11.73,2.6,17,4.76
		C593.57,378.98,595.56,379.52,598.21,380.4z M551.37,372.38c1.48,4.1,4.2,7.44,6.97,10.78c3.71,4.48,7.01,9.2,10.42,13.84
		c0.47,0.64,0.57,1.46,0.84,2.2c-5.02-3.31-8.43-7.59-11.95-11.79c-3.49-4.17-6.91-8.37-10.71-12.97c0.13,1.12,0.07,1.79,0.3,2.36
		c2.15,5.33,4.5,10.6,8.82,14.92c6.37,6.37,12.95,12.6,19.47,18.87c0.5,0.48,1.18,0.85,1.77,1.27c-0.74-5.99-2.03-11.68-3.46-17.32
		c-0.34-1.36-1.05-2.62-1.73-3.86c-3.03-5.46-7.69-9.9-13.47-13.63C556.23,375.49,553.8,373.94,551.37,372.38z M525.22,340.85
		c0.22-0.26,0.43-0.52,0.65-0.78c-4.55-2.56-9.21-4.97-15.02-6.1c-6.18-1.21-12.32-2.49-18.47-3.77c-1.2-0.25-2.65-0.3-3.16-1.94
		c1.92-0.08,3.6-0.37,5.04-0.17c4.07,0.57,8.13,1.21,12.04,2.07c4.87,1.06,9.59,2.36,14.38,3.56c-1.34-1.22-2.84-2.29-4.56-3.13
		c-9.12-4.48-19.45-6.76-31.7-5.29c-1.89,0.23-3.88,0.72-5.71,1.39c-2.76,1.01-3.17,2.65-1.1,3.85c0.72,0.42,1.61,0.73,2.53,0.92
		c5.1,1.05,10.09,2.39,15.4,3c8.53,0.98,16.8,2.34,24.6,4.57C521.9,339.52,523.53,340.24,525.22,340.85z M521.46,288.83
		c-4.5-8.15-9.82-15.9-13.52-24.35c0.26-0.12,0.52-0.25,0.78-0.37c5.06,7.04,10.13,14.08,15.19,21.12
		c-0.89-3.33-2.28-6.43-4.05-9.35c-2.17-3.58-4.74-6.97-6.97-10.53c-3.92-6.28-9.03-11.82-15.59-16.46
		c-0.55-0.39-1.18-0.71-1.77-1.06c-0.24,0.13-0.47,0.26-0.71,0.39c3.27,7.54,7.81,14.57,11.47,21.96
		C509.79,277.24,515.22,283.27,521.46,288.83z M575.55,299.15c-0.27-0.05-0.53-0.09-0.8-0.14c-3.47,2.58-6.53,5.45-8.5,8.69
		c-4.03,6.64-7.91,13.33-11.47,20.06c-1.74,3.28-2.63,6.71-3.91,10.07c5.11-5.13,6.92-10.92,10.19-16.4
		c0.04,4.29-1.83,8.55-3.15,12.85c2.49-3.15,4.93-6.28,6.54-9.54c3.57-7.26,6.76-14.57,10.03-21.86
		C575.03,301.65,575.2,300.39,575.55,299.15z M527.59,302.55c0.19-0.23,0.37-0.46,0.56-0.68c-1.25-0.57-2.42-1.24-3.76-1.7
		c-4.49-1.56-9.03-3.07-13.57-4.57c-3.74-1.23-7.74-1.74-12.27-1.29c-2.66,0.26-5.27-0.04-7.89-0.11c-1.04-0.03-2.06-0.14-3.96-0.27
		c3.8,3.07,7.59,5.1,12.42,5.78c7.42,1.04,15.04,1.67,22.58,2.45C523.63,302.35,525.62,302.42,527.59,302.55z M531.55,390.92
		c-12.24,8.87-16.51,19.85-15.73,31.96c0.73-0.78,1.22-1.27,1.67-1.78c6.81-7.71,10.68-16.13,15.66-24.29
		c0.51-0.84,0.75-1.74,1.1-2.61c0.02-0.06-0.08-0.16-0.17-0.19c-0.08-0.03-0.21,0-0.61,0.02c-2.1,2.98-4.35,6.01-6.39,9.11
		c-1.99,3.03-3.77,6.11-5.87,9.55c-1.74-1.84-1.01-3.53-0.09-5.11c1.72-2.96,3.66-5.87,5.5-8.8
		C528.46,395.85,530.29,392.93,531.55,390.92z M543.38,309.72c0.32-0.03,0.63-0.06,0.95-0.08c4.28-10.42,4.11-20.39,2.6-30.26
		c-1.99,4.78-3.49,9.54-5.05,14.3c-2.59,7.91-3.11,11.89-1.63,14.44c0.4-1.64,0.72-3,1.06-4.36c0.3-1.18,0.47-2.38,1-3.53
		c0.25-0.55,1.19-1.01,1.82-1.51c0.38,0.47,1.07,0.89,1.07,1.43c0.01,1.05-0.35,2.15-0.56,3.23
		C544.21,305.48,543.79,307.6,543.38,309.72z M555.03,352.81c-1.52,0.23-2.49,0.37-4.18,0.62
		C552.57,354.36,553.55,354.42,555.03,352.81z"/>
	<path class="st3" d="M574.37,367.4c1.81,0.88,3.62,1.76,6.01,2.92C577.21,369.96,576.77,369.78,574.37,367.4z"/>
</g>
<g>
	<path class="st10" d="M919.03,203.03c-56.47-9.36-36.66,105.13-31.71,214.42c4.95,109.29-131.77,81.18-131.77,81.18
		s-8.91,6.25-20.8,10.55c-11.89,4.3-19.82-0.25-19.82-0.25c-17.83,1.97-13.87-8.21-13.87-8.21c-6.82,0.61-14.3,1-22.1,1.21
		c-40.57,1.12-89.79-2.39-99.88-3.15c-1.22-0.09-1.86-0.15-1.86-0.15c-2.97,6.25-20.61,9.37-20.61,9.37c-12.68,2.08-14.07,0-14.07,0
		c-6.93-1.04-12.87-8.33-12.87-8.33c-4.96-11.45,7.92-18.73,7.92-18.73c-10.42-216.04,0.99-243.12,0.99-243.12
		c-17.83-4.77-12.88-24.38-12.88-24.38c-9.91-8.33-2.48-18.22-2.48-18.22c-9.42-8.84,0.5-18.21,0.5-18.21
		c-3.96-42.67,16.84-73.38,16.84-73.38s-6.93-85.87,14.86-84.83c21.8,1.04,38.64,66.61,38.64,66.61c10.9-6.24,33.17,0.86,33.17,0.86
		s29.62-83.32,48.55-67.48c19.31,16.14,3.48,77.72,3.48,77.72c36.15,34.2,26.24,58.14,26.24,58.14
		c22.79,21.86,3.96,19.66,3.96,19.66c11.89,12.38,3.96,20.93,3.96,20.93c15.85,20.82-2.97,29.15-2.97,29.15
		c1.1,0.51,2.2,1.02,3.27,1.53c19.1,9.11,34.4,19.62,46.59,30.95c5.16,4.8,9.77,9.75,13.87,14.8
		c19.65,24.19,27.75,50.77,30.03,74.94c1.28,13.59,0.73,26.43-0.63,37.65v0.01c-2.99,24.66-9.92,41.53-9.92,41.53
		s0.29,0.09,0.84,0.25c2.66,0.76,11.4,3.11,21.48,4.12c16.56,1.65,36.77-0.33,39.62-18.96c0.78-5.09,0.65-11.99-0.05-20.33
		c-1.04-12.4-3.34-27.98-5.78-45.49c-5.44-39.05-11.55-87.71-5.84-132.21c0.92-7.18,2.15-14.26,3.74-21.17
		c1.19-5.17,2.69-10.03,4.47-14.59c20.7-53.29,78.66-65.17,115.4-48.64c9.81,4.42,18.12,10.85,23.79,19.08
		C1020.09,189.5,975.5,212.4,919.03,203.03z"/>
</g>
<ellipse class="st11" cx="588.58" cy="178.5" rx="13.74" ry="11.67"/>
<ellipse class="st11" cx="617.81" cy="179.28" rx="13.74" ry="11.67"/>
<g>
	<path class="st12" d="M587.32,152.71c0,0-0.14,0.14-0.41,0.38c-0.55,0.5-1.66,1.47-3.18,2.62c-4.64,3.47-12.4,3.17-21.14,1.79
		c-12.98-2.04-22.31-12.19-22.31-12.19s1.27-1.24,3.42-2.87c4.6-3.47,13.22-8.71,22.07-7.32c11.2,1.76,19.1,13.56,21.07,16.78
		C587.15,152.42,587.32,152.71,587.32,152.71z"/>
</g>
<g>
	<path class="st13" d="M587.32,152.71c0,0-0.14,0.14-0.41,0.38c-0.23-0.14-0.46-0.29-0.69-0.43c-16.08-10.1-30.87-11.69-42.51-10.21
		c4.6-3.47,13.22-8.71,22.07-7.32c11.2,1.76,19.1,13.56,21.07,16.78C587.15,152.42,587.32,152.71,587.32,152.71z"/>
</g>
<g>
	<path class="st12" d="M670.44,144.38c0,0-0.08,0.16-0.23,0.46c-1.37,2.64-9.72,10.95-21.28,13.5c-12.85,2.83-25.03-3.71-25.03-3.71
		s0.69-1.44,2-3.54c3.07-4.89,9.52-13.34,18.52-15.32C657.28,132.94,670.44,144.38,670.44,144.38z"/>
</g>
<g>
	<path class="st13" d="M670.44,144.38c0,0-0.08,0.16-0.23,0.46c-11.02-2.66-26.88-3.27-44.31,6.25c3.07-4.89,9.52-13.34,18.52-15.32
		C657.28,132.94,670.44,144.38,670.44,144.38z"/>
</g>
<g>
	<path class="st14" d="M549.97,97.93c0,0,0.99-9.11,6.19-9.11s3.72,4.55,3.72,4.55s4.46-14.7,13.37-4.55c0,0-4.47-10.65,8.17-7.03
		c0,0-13.37-42.15-22.29-46.84C550.22,30.28,546.01,64.1,549.97,97.93z"/>
</g>
<g>
	<path class="st14" d="M670.69,103.84c0,0-0.39-9.16-5.58-9.54c-5.19-0.38-4.01,4.27-4.01,4.27s-3.48-14.99-13.04-5.51
		c0,0,5.16-10.3-7.69-7.61c0,0,16.11-41.08,25.32-45.11C674.89,36.33,676.87,70.38,670.69,103.84z"/>
</g>
<g>
	<path class="st15" d="M587.32,154.04c-0.4,0-0.8-0.2-1.05-0.58c-6.87-10.61-14.57-16.34-22.87-17.02
		c-12.38-1.02-22.09,9.68-22.19,9.79l-0.96,1.07l-7.54-9.11c-0.46-0.55-0.4-1.39,0.12-1.88c0.53-0.48,1.33-0.42,1.79,0.13l5.74,6.93
		c2.92-2.86,11.88-10.51,23.22-9.59c9.11,0.74,17.45,6.86,24.79,18.18c0.39,0.61,0.24,1.43-0.33,1.85
		C587.81,153.96,587.56,154.04,587.32,154.04z"/>
</g>
<g>
	<path class="st15" d="M623.9,155.96c-0.18,0-0.36-0.04-0.53-0.12c-0.63-0.31-0.91-1.09-0.62-1.76c0.28-0.63,6.91-15.5,20.52-19.11
		c8.45-2.24,17.62,0.39,27.27,7.83l8.57-5.05c0.61-0.36,1.38-0.13,1.72,0.51c0.34,0.64,0.12,1.45-0.48,1.81l-10.01,5.89l-0.66-0.52
		c-9.25-7.32-17.92-9.98-25.78-7.9c-12.43,3.29-18.79,17.5-18.86,17.65C624.84,155.68,624.38,155.96,623.9,155.96z"/>
</g>
<g>
	<path class="st16" d="M571.88,150.28c-0.67,4.69-4.83,7.92-9.29,7.22c-4.46-0.7-7.54-5.07-6.87-9.76c0.67-4.69,4.83-7.92,9.29-7.22
		C569.47,141.22,572.55,145.59,571.88,150.28z"/>
</g>
<g>
	<path class="st16" d="M655.26,148.18c0.93,4.64-1.9,9.19-6.32,10.17c-4.42,0.97-8.75-2-9.68-6.64c-0.93-4.64,1.9-9.19,6.32-10.17
		C650,140.56,654.33,143.53,655.26,148.18z"/>
</g>
<g>
	<path class="st12" d="M563.8,149.01c-0.26,1.81-1.87,3.06-3.59,2.79c-1.72-0.27-2.91-1.96-2.66-3.77c0.26-1.81,1.87-3.06,3.59-2.79
		C562.87,145.51,564.06,147.2,563.8,149.01z"/>
</g>
<g>
	<path class="st12" d="M646.8,149.59c0.36,1.79-0.74,3.55-2.44,3.93c-1.71,0.38-3.38-0.77-3.74-2.57c-0.36-1.79,0.74-3.55,2.44-3.93
		C644.77,146.65,646.45,147.8,646.8,149.59z"/>
</g>
<g>
	<path class="st16" d="M605.45,169.37c0,0-10.51-9.95-11-7.4c-0.49,2.55,10.2,15.31,10.2,15.31s15.05-16.29,11.17-15.8
		C611.94,161.97,605.45,169.37,605.45,169.37z"/>
</g>
<g>
	<path class="st16" d="M590.35,191.72c-2.1,0-7.71-7.24-8.92-8.7l2.4-1.19c1.75,2.13,7.67,7.89,8.9,7.54
		c10.39-2.98,10.96-11.76,10.98-12.14l1.9-0.01c0.03,0.47,0.87,11.66,10.9,12.1c1.97,0.09,4.95-3.18,5.73-9.28l3.03,4.12
		c-1.98,1.02-3.81,7.57-8.84,7.16c-7.46-0.61-10.58-5.84-11.86-9.84c-1.34,3.35-4.4,7.82-11.34,9.82
		C592.22,191.57,591.25,191.72,590.35,191.72z"/>
</g>
<g>
	<polygon class="st16" points="587.26,170.36 493.69,164.69 493.8,162.7 587.37,168.37 	"/>
</g>
<g>
	<polygon class="st16" points="477.46,184.99 477.34,183 585.91,176.28 586.02,178.27 	"/>
</g>
<g>
	<polygon class="st16" points="493.92,203 493.58,201.04 587.14,183.01 587.49,184.98 	"/>
</g>
<g>
	<polygon class="st16" points="633.42,171.5 633.31,169.51 726.88,163.84 726.99,165.83 	"/>
</g>
<g>
	<polygon class="st16" points="743.23,186.13 634.66,179.41 634.77,177.42 743.34,184.14 	"/>
</g>
<g>
	<polygon class="st16" points="726.77,204.13 633.2,186.11 633.54,184.15 727.11,202.17 	"/>
</g>
<g>
	<path class="st17" d="M760.34,256.87c-15.58,7.8-31.83,14.14-48.93,15.65c-8.59,0.76-17.49,0.33-25.53,3.59
		c-4.47,1.81-8.5,4.71-13.05,6.26c-3.11,1.06-6.98,1.28-9.24-1.21c-3.27-3.6-0.61-9.79,3.23-12.7c3.84-2.91,8.72-4.36,11.85-8.09
		c1.59-1.89,2.6-4.23,3.96-6.31c1.44-2.21,3.27-4.11,5.13-5.95c8.14-8.03,17.11-15.05,25.98-22.19
		C732.84,235.04,748.14,245.54,760.34,256.87z"/>
</g>
<g>
	<g>
		<path class="st17" d="M804.25,346.62c-9.34,6.58-20.38,10.48-31.64,10.56c-14.53,0.11-29.2-5.47-43.33-1.93
			c-6.06,1.52-11.79,4.7-18.01,5.09c-2.68,0.17-5.57-0.29-7.55-2.18c-5.04-4.81-0.44-13.77,5.25-17.7c5.69-3.93,13.05-7,14.88-13.9
			c0.4-1.51,0.47-3.2-0.24-4.58c-1.37-2.71-4.82-3.08-7.7-3.61c-2.88-0.53-6.29-2.49-5.87-5.53c0.18-1.31,1.06-2.37,1.97-3.29
			c9.14-9.21,22.84-10.64,34.62-15.51c10.96-4.52,20.59-12.43,27.58-22.37C793.87,295.87,801.96,322.45,804.25,346.62z"/>
	</g>
	<g>
		<path class="st17" d="M793.69,425.8c0,0,0.29,0.09,0.84,0.25c-6.29,3.21-11.99,7.67-16.7,13.11c-2.72,3.14-5.17,6.65-8.56,8.95
			c-3.39,2.31-8.13,3.11-11.37,0.57c-1.47-1.16-2.47-2.87-3.91-4.07c-4.26-3.51-10.39-1.43-15.51,0.45
			c-5.11,1.87-11.8,2.91-15.03-1.65c-1.96-2.76-1.73-6.72-0.3-9.81c1.43-3.1,3.87-5.53,6.25-7.89c6.95-6.89,14.03-13.87,22.57-18.39
			c6.05-3.21,12.63-5.07,19.06-7.33c11.36-4,22.3-9.27,32.6-15.7C800.62,408.94,793.69,425.8,793.69,425.8z"/>
	</g>
</g>
<g>
	<g>
		<path class="st17" d="M878.11,430.42c-0.45,9.15-5.9,18.45-14.31,20.87c-7.25,2.08-15.82-0.9-22.01,3.57
			c-3.7,2.67-6.03,7.73-10.44,8.62c-1.65,0.33-3.37-0.01-4.92-0.68c-5.58-2.43-8.75-8.82-9.77-15.08
			c-0.94-5.79-0.45-11.7-0.66-17.56c16.56,1.65,36.77-0.33,39.62-18.96c0.78-5.09,0.65-11.99-0.05-20.33
			c1.04,0.39,2.05,0.87,3.03,1.43c4.88,2.8,8.51,7.5,11.55,12.4C874.9,412.39,878.56,421.26,878.11,430.42z"/>
	</g>
	<g>
		<path class="st17" d="M855.63,344.9c-1.92,0.63-3.89,0.76-5.84,0.49c-5.44-39.05-11.55-87.71-5.84-132.21
			c3.73,3.38,6.56,8.23,8.91,12.89c4.17,8.27,7.95,16.92,9.39,26.16c1.43,9.24,0.31,19.22-4.68,26.99
			c-1.88,2.92-4.37,5.77-4.47,9.29c-0.07,2.2,0.84,4.3,1.79,6.26c4.16,8.6,9.67,16.74,11.4,26.21
			C868.04,330.46,864.4,342.05,855.63,344.9z"/>
	</g>
	<g>
		<path class="st17" d="M967.57,128.79c-0.04,1.5-0.16,3.01-0.37,4.51c-2.38,17.41-16.84,32.73-33.56,33.53
			c-8.61,0.41-16.99-2.72-25.04-5.97c-2.92-1.18-5.98-2.41-9.1-2.07c-7.43,0.8-11.22,9.44-16.18,15.3
			c-6.23,7.36-16.79,11.05-25.43,7.2c-2.16-0.96-4.05-2.27-5.72-3.86C872.87,124.14,930.83,112.26,967.57,128.79z"/>
	</g>
</g>
<g>
	<path class="st11" d="M678.97,501.93c-40.57,1.12-89.79-2.39-99.88-3.15c0.24-5.38,0.77-10.74,1.58-16.05
		c1.24-8.14,3.15-16.15,4.58-24.25c2.1-11.92,3.18-24.04,3.23-36.17c0.04-13.62-1.19-27.5,2.17-40.65
		c3.36-13.15,12.76-25.8,25.62-27.54c13.81-1.87,26.32,9.21,33.74,21.58c10.53,17.56,14.66,38.4,18.6,58.73
		c2.1,10.85,4.2,21.7,6.3,32.55C677.12,478.46,679.33,490.33,678.97,501.93z"/>
</g>
<g>
	<g>
		<path class="st17" d="M540.1,489.83c-5.93,1.21-9.91,7.88-8.74,14.01c0.17,0.88,1.16,1.39,1.95,1.16
			c0.87-0.25,1.27-1.16,1.11-2.05c-0.03-0.16-0.06-0.32-0.08-0.48c0.05,0.33-0.01-0.18-0.01-0.2c-0.02-0.3-0.03-0.59-0.02-0.89
			c0.01-0.3,0.03-0.59,0.06-0.89c-0.04,0.33,0.02-0.13,0.03-0.2c0.03-0.16,0.06-0.32,0.09-0.48c0.07-0.32,0.15-0.63,0.25-0.94
			c0.04-0.13,0.08-0.26,0.13-0.38c0.03-0.08,0.06-0.15,0.08-0.23c-0.05,0.12-0.05,0.13-0.01,0.02c0.24-0.57,0.53-1.12,0.86-1.64
			c0.09-0.14,0.18-0.27,0.27-0.4c0.03-0.04,0.06-0.09,0.09-0.13c-0.07,0.1-0.07,0.11-0.01,0.02c0.18-0.23,0.37-0.45,0.57-0.67
			c0.22-0.23,0.44-0.46,0.68-0.67c0,0,0.38-0.33,0.16-0.15c0.12-0.1,0.25-0.19,0.38-0.28c0.47-0.34,0.96-0.63,1.48-0.87
			c-0.27,0.12,0.18-0.07,0.19-0.07c0.15-0.06,0.29-0.11,0.44-0.15c0.3-0.09,0.6-0.17,0.9-0.23c0.84-0.17,1.32-1.23,1.11-2.05
			C541.81,490.07,540.95,489.66,540.1,489.83L540.1,489.83z"/>
	</g>
</g>
<g>
	<g>
		<path class="st17" d="M550.02,489.92c-5.9,3.43-8.23,11.69-5.32,18.01c0.37,0.81,1.47,1.02,2.16,0.6
			c0.79-0.48,0.94-1.46,0.57-2.27c-2.15-4.66-0.19-10.92,4.18-13.46C553.4,491.75,551.8,488.88,550.02,489.92L550.02,489.92z"/>
	</g>
</g>
<g>
	<g>
		<path class="st17" d="M704.86,488.14c-4.41,2.57-7.26,7.58-7.42,12.85c-0.03,0.9,0.75,1.66,1.58,1.66c0.88,0,1.55-0.76,1.58-1.66
			c0.01-0.28,0.02-0.57,0.05-0.85c0-0.04,0.05-0.46,0.03-0.29c-0.02,0.16,0.05-0.3,0.05-0.28c0.09-0.53,0.21-1.06,0.36-1.57
			c0.07-0.24,0.15-0.49,0.23-0.73c0.06-0.16,0.11-0.32,0.18-0.48c-0.07,0.16,0-0.01,0.03-0.07c0.23-0.52,0.48-1.02,0.76-1.51
			c1.02-1.76,2.42-3.18,4.17-4.2c0.75-0.44,0.99-1.51,0.57-2.27C706.59,487.94,705.61,487.7,704.86,488.14L704.86,488.14z"/>
	</g>
</g>
<g>
	<g>
		<path class="st17" d="M717.45,491.17c-6,3.66-8.24,12.4-4.84,18.75c1,1.87,3.73,0.19,2.73-1.68c-2.54-4.75-0.84-11.43,3.71-14.2
			C720.81,492.97,719.22,490.1,717.45,491.17L717.45,491.17z"/>
	</g>
</g>
<g>
	<g>
		<path class="st17" d="M732.05,494.54c-3.98,4.16-4.88,10.9-2.22,16.08c0.97,1.88,3.7,0.21,2.73-1.68
			c-1.97-3.84-1.26-8.93,1.73-12.05C735.74,495.38,733.5,493.03,732.05,494.54L732.05,494.54z"/>
	</g>
</g>
<g>
	<g>
		<path class="st17" d="M767.61,463.77c-3.86,11.77-9.3,22.93-16.09,33.14c-0.49,0.74-0.13,1.85,0.57,2.27
			c0.79,0.48,1.67,0.14,2.17-0.6c6.94-10.44,12.45-21.89,16.41-33.93c0.28-0.85-0.32-1.82-1.11-2.05
			C768.69,462.36,767.89,462.92,767.61,463.77L767.61,463.77z"/>
	</g>
</g>
<g>
	<g>
		<path class="st18" d="M550,99.36c0.41-2.97,1.9-6.36,5.1-6.73c1.23-0.14,2.52,0.28,3.17,1.42c0.51,0.89,0.67,2.09,0.11,2.91
			c-0.15,0.22-0.46,0.4,0.06,0.33c0.01,0,0.08,0.07,0.07,0.1c-0.02,0.05-0.23-0.44-0.18-0.32c-0.23-0.58-0.19-1.23-0.12-1.91
			c0.14-1.39,0.65-2.74,1.39-3.9c1.37-2.16,3.97-3.7,6.36-2.72c2.31,0.95,4.14,3.96,3,6.28c0.91,0,1.82,0,2.73,0
			c-1.82-2.83-1.44-7.01,1.12-9.25c2.54-2.22,6.62-1.8,8.86,0.64c1.42,1.54,3.65-0.81,2.24-2.35c-3.42-3.72-9.38-4.07-13.18-0.78
			c-3.65,3.17-4.41,9.33-1.77,13.42c0.63,0.97,2.15,1.18,2.73,0c1.96-3.97-0.21-8.8-3.86-10.7c-4.09-2.13-8.57,0-10.96,3.79
			c-1.16,1.83-1.82,4.07-1.86,6.27c-0.04,2.21,1.14,5.14,3.71,4.64c2.41-0.46,3.38-3.45,3.08-5.71c-0.32-2.34-1.79-4.23-3.88-5.07
			c-2.5-1.01-5.41-0.19-7.42,1.55c-2.04,1.76-3.18,4.52-3.56,7.22c-0.12,0.89,0.21,1.79,1.11,2.05
			C548.8,100.73,549.88,100.25,550,99.36L550,99.36z"/>
	</g>
</g>
<g>
	<g>
		<path class="st18" d="M640.35,86.78c0.88-0.98,2.33-0.88,3.4-0.29c1.46,0.81,2.49,2.32,3.42,3.71c0.74,1.11,1.49,2.56,1.6,3.81
			c0.03,0.35,0.02,0.61-0.02,0.78c-0.03,0.11-0.06,0.24-0.1,0.34c0.1-0.25-0.18,0.22-0.02,0.02c-0.32,0.39-0.62,0.46-1.03,0.3
			c-1.12-0.43-1.38-1.75-0.9-2.93c0.59-1.41,1.88-2.43,3.24-2.89c2.75-0.93,5.91-0.11,7.93,2.05c2.49,2.66,3.18,6.76,2.38,10.3
			c0.88-0.24,1.76-0.49,2.64-0.73c-0.63-0.8-0.72-1.95-0.5-2.94c0.25-1.15,0.84-2.22,1.72-2.97c2.45-2.07,6.21-1.19,8.75,0.19
			c1.81,0.98,3.41-1.89,1.6-2.87c-3.88-2.1-9.12-2.9-12.66,0.4c-2.85,2.65-3.63,7.37-1.15,10.54c0.76,0.97,2.39,0.41,2.64-0.73
			c1.05-4.67,0.12-9.92-3.11-13.45c-3.14-3.43-8.27-4.45-12.38-2.45c-2.08,1.02-3.97,3.1-4.4,5.53c-0.45,2.54,0.63,5.02,2.96,6.01
			c2.16,0.92,4.61-0.23,5.35-2.58c0.65-2.06-0.16-4.42-1.11-6.23c-0.62-1.18-1.43-2.28-2.24-3.32c-0.84-1.08-1.84-2.1-3.02-2.76
			c-2.28-1.3-5.37-1.27-7.23,0.81C636.71,85.99,638.95,88.34,640.35,86.78L640.35,86.78z"/>
	</g>
</g>
<g>
	<g>
		<path class="st17" d="M706.67,408.16c-1.79,20.89-2.9,41.84-3.3,62.81c-0.11,5.85-0.17,11.7-0.17,17.55c0,2.14,3.16,2.14,3.16,0
			c0.01-20.97,0.72-41.94,2.13-62.87c0.39-5.84,0.84-11.67,1.34-17.49c0.08-0.9-0.78-1.66-1.58-1.66
			C707.33,406.49,706.74,407.26,706.67,408.16L706.67,408.16z"/>
	</g>
</g>
<g>
	<g>
		<path class="st17" d="M771.22,464.24c4.41-10.88,10.2-21.16,17.25-30.39c2.01-2.63,4.13-5.18,6.33-7.65
			c1.39-1.56-0.84-3.92-2.24-2.35c-7.86,8.8-14.59,18.71-19.9,29.41c-1.51,3.04-2.9,6.14-4.18,9.3c-0.33,0.83-0.24,1.78,0.57,2.27
			C769.72,465.24,770.89,465.07,771.22,464.24L771.22,464.24z"/>
	</g>
</g>
<g>
	<g>
		<path class="st19" d="M615.51,171.57c0,0.26,0,0.52,0,0.78c-0.01,0.23,0.04,0.44,0.14,0.64c0.06,0.21,0.17,0.38,0.33,0.54
			c0.14,0.16,0.31,0.28,0.51,0.34c0.19,0.1,0.39,0.15,0.61,0.14c0.14-0.02,0.28-0.04,0.42-0.06c0.27-0.08,0.5-0.22,0.7-0.43
			c0.08-0.11,0.16-0.22,0.25-0.34c0.14-0.26,0.22-0.54,0.22-0.84c0-0.26,0-0.52,0-0.78c0.01-0.23-0.04-0.44-0.14-0.64
			c-0.06-0.21-0.17-0.38-0.33-0.54c-0.14-0.16-0.31-0.28-0.51-0.34c-0.19-0.1-0.39-0.15-0.61-0.14c-0.14,0.02-0.28,0.04-0.42,0.06
			c-0.27,0.08-0.5,0.22-0.7,0.43c-0.08,0.11-0.16,0.22-0.25,0.34C615.58,170.99,615.51,171.27,615.51,171.57L615.51,171.57z"/>
	</g>
</g>
<g>
	<g>
		<path class="st19" d="M618.58,178.7c2.04,0,2.04-3.32,0-3.32C616.54,175.37,616.54,178.7,618.58,178.7L618.58,178.7z"/>
	</g>
</g>
<g>
	<g>
		<path class="st19" d="M612.63,182.6c2.04,0,2.04-3.32,0-3.32C610.6,179.28,610.59,182.6,612.63,182.6L612.63,182.6z"/>
	</g>
</g>
<g>
	<g>
		<path class="st19" d="M593.32,172.25c-0.25,0-0.5,0-0.74,0c-0.22-0.01-0.42,0.04-0.61,0.14c-0.2,0.07-0.37,0.18-0.51,0.34
			c-0.15,0.15-0.26,0.33-0.33,0.54c-0.1,0.2-0.14,0.41-0.14,0.64c0.02,0.15,0.04,0.29,0.06,0.44c0.08,0.28,0.21,0.53,0.41,0.73
			c0.11,0.09,0.21,0.17,0.32,0.26c0.25,0.15,0.51,0.23,0.8,0.23c0.25,0,0.5,0,0.74,0c0.22,0.01,0.42-0.04,0.61-0.14
			c0.2-0.07,0.37-0.18,0.51-0.34c0.15-0.15,0.26-0.33,0.33-0.54c0.1-0.2,0.14-0.41,0.14-0.64c-0.02-0.15-0.04-0.29-0.06-0.44
			c-0.08-0.28-0.21-0.53-0.41-0.73c-0.11-0.09-0.21-0.17-0.32-0.26C593.87,172.33,593.6,172.25,593.32,172.25L593.32,172.25z"/>
	</g>
</g>
<g>
	<g>
		<path class="st19" d="M591.83,181.82c2.04,0,2.04-3.32,0-3.32C589.79,178.5,589.79,181.82,591.83,181.82L591.83,181.82z"/>
	</g>
</g>
<g>
	<g>
		<path class="st19" d="M585.88,173.23c2.04,0,2.04-3.32,0-3.32C583.85,169.91,583.84,173.23,585.88,173.23L585.88,173.23z"/>
	</g>
</g>
<g>
	<g>
		<path class="st19" d="M623.78,176.94c-0.25,0-0.5,0-0.74,0c-0.22-0.01-0.42,0.04-0.61,0.14c-0.2,0.07-0.37,0.18-0.51,0.34
			c-0.15,0.15-0.26,0.33-0.33,0.54c-0.1,0.2-0.14,0.41-0.14,0.64c0.02,0.15,0.04,0.29,0.06,0.44c0.08,0.28,0.21,0.53,0.41,0.73
			c0.11,0.09,0.21,0.17,0.32,0.26c0.25,0.15,0.51,0.23,0.8,0.23c0.25,0,0.5,0,0.74,0c0.22,0.01,0.42-0.04,0.61-0.14
			c0.2-0.07,0.37-0.18,0.51-0.34c0.15-0.15,0.26-0.33,0.33-0.54c0.1-0.2,0.14-0.41,0.14-0.64c-0.02-0.15-0.04-0.29-0.06-0.44
			c-0.08-0.28-0.21-0.53-0.41-0.73c-0.11-0.09-0.21-0.17-0.32-0.26C624.33,177.01,624.07,176.94,623.78,176.94L623.78,176.94z"/>
	</g>
</g>
<g>
	<g>
		<path class="st19" d="M593.32,184.16c2.04,0,2.04-3.32,0-3.32C591.28,180.84,591.28,184.16,593.32,184.16L593.32,184.16z"/>
	</g>
</g>
<g>
	<g>
		<path class="st19" d="M698.08,410.45c0.2,6.74,2.24,13.37,5.93,18.9c0.49,0.73,1.38,1.08,2.17,0.6c0.69-0.43,1.06-1.54,0.57-2.27
			c-3.38-5.06-5.32-11.03-5.5-17.22C701.18,408.31,698.02,408.3,698.08,410.45L698.08,410.45z"/>
	</g>
</g>
<g>
	<g>
		<path class="st17" d="M541.26,62.62c-0.25,1.3-0.5,2.6-0.74,3.9c-0.08,0.44-0.06,0.88,0.16,1.28c0.19,0.34,0.57,0.67,0.95,0.76
			c0.41,0.1,0.86,0.08,1.22-0.17c0.33-0.23,0.65-0.57,0.73-0.99c0.25-1.3,0.5-2.6,0.74-3.9c0.08-0.44,0.06-0.88-0.16-1.28
			c-0.19-0.34-0.57-0.67-0.95-0.76c-0.41-0.1-0.86-0.08-1.22,0.17C541.66,61.85,541.34,62.2,541.26,62.62L541.26,62.62z"/>
	</g>
</g>
<g>
	<g>
		<path class="st20" d="M646.59,82.15c2.35-7.54,5.67-14.7,9.86-21.31c1.13-1.79-1.61-3.45-2.73-1.68
			c-4.33,6.84-7.75,14.29-10.17,22.1C642.91,83.31,645.96,84.18,646.59,82.15L646.59,82.15z"/>
	</g>
</g>
<g>
	<g>
		<path class="st20" d="M659.29,57.64c0.5-1,1.07-1.97,1.7-2.9c0.07-0.11,0.15-0.21,0.22-0.32c0.01-0.01,0.3-0.41,0.12-0.17
			c0.15-0.21,0.31-0.41,0.47-0.61c0.36-0.44,0.73-0.88,1.11-1.29c0.73-0.8,1.52-1.54,2.35-2.22c-0.23,0.19,0.15-0.12,0.16-0.12
			c0.1-0.08,0.2-0.16,0.3-0.23c0.22-0.17,0.45-0.33,0.68-0.5c0.46-0.32,0.93-0.62,1.41-0.91c0.72-0.43,1.03-1.53,0.57-2.27
			c-0.47-0.76-1.39-1.06-2.17-0.6c-4.08,2.43-7.48,6.11-9.66,10.47c-0.38,0.77-0.21,1.84,0.57,2.27
			C657.85,58.64,658.88,58.46,659.29,57.64L659.29,57.64z"/>
	</g>
</g>
<g>
	<g>
		<path class="st20" d="M649.76,83.78c1.58-5.97,4.06-11.6,7.34-16.75c1.14-1.78-1.6-3.45-2.73-1.68
			c-3.42,5.37-6.01,11.32-7.66,17.55C646.16,84.96,649.22,85.84,649.76,83.78L649.76,83.78z"/>
	</g>
</g>
<g>
	<g>
		<path class="st20" d="M663.11,63.16c0.44-0.99,0.95-1.94,1.53-2.84c0.16-0.25,0.33-0.49,0.49-0.73c0.17-0.25-0.06,0.07,0.05-0.08
			c0.07-0.1,0.15-0.19,0.22-0.29c0.34-0.44,0.7-0.87,1.08-1.28c0.36-0.39,0.74-0.77,1.12-1.13c0.19-0.18,0.39-0.36,0.59-0.53
			c0.05-0.04,0.38-0.31,0.12-0.11c0.09-0.08,0.19-0.15,0.28-0.22c0.85-0.66,1.76-1.25,2.71-1.75c0.74-0.4,1.01-1.55,0.57-2.27
			c-0.49-0.79-1.37-1.02-2.17-0.6c-4.05,2.17-7.42,5.81-9.34,10.15c-0.35,0.79-0.24,1.83,0.57,2.27
			C661.65,64.14,662.74,64,663.11,63.16L663.11,63.16z"/>
	</g>
</g>
<g>
	<g>
		<path class="st20" d="M658.01,81.46c0.71-5.19,3.27-10.1,7.28-13.28c0.68-0.54,1.04-1.43,0.57-2.27c-0.39-0.7-1.48-1.14-2.17-0.6
			c-4.65,3.7-7.9,9.17-8.73,15.27c-0.12,0.89,0.21,1.79,1.11,2.05C656.8,82.84,657.88,82.35,658.01,81.46L658.01,81.46z"/>
	</g>
</g>
<g>
	<g>
		<path class="st20" d="M559.07,68.97c0.47,3.13,0.94,6.25,1.4,9.38c0.13,0.86,1.2,1.42,1.95,1.16c0.89-0.3,1.24-1.12,1.11-2.05
			c-0.47-3.13-0.94-6.25-1.4-9.38c-0.13-0.86-1.2-1.42-1.95-1.16C559.29,67.23,558.94,68.05,559.07,68.97L559.07,68.97z"/>
	</g>
</g>
<g>
	<g>
		<path class="st20" d="M554.8,56.88c0.99,2.34,1.98,4.68,2.97,7.03c0.34,0.8,1.5,1.05,2.16,0.6c0.79-0.53,0.93-1.42,0.57-2.27
			c-0.99-2.34-1.98-4.68-2.97-7.03c-0.34-0.8-1.5-1.05-2.17-0.6C554.58,55.13,554.44,56.02,554.8,56.88L554.8,56.88z"/>
	</g>
</g>
<g>
	<g>
		<path class="st20" d="M557.53,57.29c3.14,8.02,5.46,16.38,6.91,24.92c0.15,0.88,1.18,1.38,1.95,1.16
			c0.89-0.26,1.26-1.16,1.11-2.05c-1.45-8.54-3.77-16.9-6.91-24.92c-0.32-0.83-1.05-1.42-1.95-1.16
			C557.89,55.46,557.21,56.46,557.53,57.29L557.53,57.29z"/>
	</g>
</g>
<g>
	<g>
		<path class="st20" d="M558.36,51.48c2.5,5.97,5.01,11.95,7.51,17.92c0.34,0.82,1.49,1.01,2.17,0.6c0.81-0.5,0.91-1.45,0.57-2.27
			c-2.5-5.97-5.01-11.95-7.51-17.92c-0.34-0.82-1.49-1.01-2.17-0.6C558.12,49.7,558.02,50.66,558.36,51.48L558.36,51.48z"/>
	</g>
</g>
<g>
	<g>
		<path class="st20" d="M556.68,37.12c5.93,10.68,10.23,22.29,12.74,34.36c0.71,3.4,1.28,6.84,1.69,10.29
			c0.11,0.89,0.65,1.66,1.58,1.66c0.77,0,1.69-0.77,1.58-1.66c-1.52-12.76-4.92-25.18-10.11-36.82c-1.45-3.24-3.04-6.42-4.75-9.51
			C558.38,33.59,555.65,35.26,556.68,37.12L556.68,37.12z"/>
	</g>
</g>
<g>
	<g>
		<path class="st20" d="M553.23,45.21c0.25,0.52,0.5,1.04,0.75,1.56c0.1,0.19,0.24,0.35,0.41,0.47c0.15,0.15,0.33,0.25,0.54,0.3
			c0.21,0.07,0.42,0.08,0.63,0.03c0.21-0.01,0.41-0.08,0.59-0.2c0.11-0.09,0.21-0.17,0.32-0.26c0.2-0.21,0.33-0.45,0.41-0.73
			c0.02-0.15,0.04-0.29,0.06-0.44c0-0.3-0.07-0.58-0.22-0.84c-0.25-0.52-0.5-1.04-0.75-1.56c-0.1-0.19-0.24-0.35-0.41-0.47
			c-0.15-0.15-0.33-0.25-0.54-0.3c-0.21-0.07-0.42-0.08-0.63-0.03c-0.21,0.01-0.41,0.08-0.59,0.2c-0.11,0.09-0.21,0.17-0.32,0.26
			c-0.2,0.21-0.33,0.45-0.41,0.73c-0.02,0.15-0.04,0.29-0.06,0.44C553.01,44.67,553.09,44.95,553.23,45.21L553.23,45.21z"/>
	</g>
</g>
<g>
	<path class="st21" d="M117.23,78.72h-5.85c-0.52-4.94-2.37-7.41-5.57-7.41c-2.07,0-3.62,0.62-4.65,1.85
		c-1.03,1.24-1.55,3.09-1.55,5.56c0,1.82,0.56,3.56,1.69,5.21l12.48,17.47c2.3,3.24,3.45,6.71,3.45,10.41v3.62
		c0,4-1.15,7.46-3.45,10.37c-2.3,2.91-5.08,4.37-8.32,4.37h-5.85c-3.9,0-6.84-1.22-8.81-3.66c-1.97-2.44-2.96-6.13-2.96-11.07h5.92
		c0,0.53,0,0.94,0,1.24c0,2,0.61,3.53,1.83,4.59c1.22,1.06,2.56,1.59,4.02,1.59c2.07,0,3.56-0.63,4.48-1.9
		c0.92-1.26,1.38-3.1,1.38-5.51c0-1.88-0.56-3.62-1.69-5.21L91.29,92.75c-2.3-3.18-3.45-6.65-3.45-10.41v-3.62
		c0-4,1.15-7.46,3.45-10.37c2.3-2.91,5.08-4.37,8.32-4.37h5.85C112.84,63.99,116.76,68.9,117.23,78.72z"/>
	<path class="st21" d="M152.48,100.78v-7.41c0-2-0.58-3.72-1.73-5.16c-1.15-1.44-2.55-2.16-4.19-2.16h-5.85
		c-3.48,0-5.43,2.44-5.85,7.32h-5.92c0.94-9.76,4.86-14.65,11.77-14.65h11.77c3.2,0,5.94,1.44,8.25,4.32
		c2.3,2.88,3.45,6.32,3.45,10.32v36.79h-11.7v-7.32c-0.47,4.88-2.44,7.32-5.92,7.32h-5.85c-3.2,0-5.96-1.44-8.28-4.32
		c-2.33-2.88-3.49-6.35-3.49-10.41c0-4,1.16-7.44,3.49-10.32c2.33-2.88,5.09-4.32,8.28-4.32H152.48z M152.48,108.1h-5.92
		c-1.6,0-2.97,0.72-4.12,2.16c-1.15,1.44-1.73,3.16-1.73,5.16c0,2,0.58,3.74,1.73,5.21c1.15,1.47,2.53,2.21,4.12,2.21
		c1.64,0,3.04-0.73,4.19-2.21c1.15-1.47,1.73-3.21,1.73-5.21V108.1z"/>
	<path class="st21" d="M199.51,100.78v-7.41c0-2-0.58-3.72-1.73-5.16c-1.15-1.44-2.55-2.16-4.19-2.16h-5.85
		c-3.48,0-5.43,2.44-5.85,7.32h-5.92c0.94-9.76,4.86-14.65,11.77-14.65h11.77c3.2,0,5.94,1.44,8.25,4.32
		c2.3,2.88,3.45,6.32,3.45,10.32v36.79h-11.7v-7.32c-0.47,4.88-2.44,7.32-5.92,7.32h-5.85c-3.2,0-5.96-1.44-8.28-4.32
		c-2.33-2.88-3.49-6.35-3.49-10.41c0-4,1.16-7.44,3.49-10.32c2.33-2.88,5.09-4.32,8.28-4.32H199.51z M199.51,108.1h-5.92
		c-1.6,0-2.97,0.72-4.12,2.16c-1.15,1.44-1.73,3.16-1.73,5.16c0,2,0.58,3.74,1.73,5.21c1.15,1.47,2.53,2.21,4.12,2.21
		c1.64,0,3.04-0.73,4.19-2.21c1.15-1.47,1.73-3.21,1.73-5.21V108.1z"/>
	<path class="st21" d="M258.23,130.16h-11.7v-7.32c-0.47,4.88-2.44,7.32-5.92,7.32h-5.85c-3.2,0-5.96-1.44-8.28-4.32
		c-2.33-2.88-3.49-6.35-3.49-10.41V93.37c0-4,1.16-7.44,3.49-10.32c2.33-2.88,5.09-4.32,8.28-4.32h11.77V63.99h11.7V130.16z
		 M246.53,86.05h-5.92c-1.6,0-2.97,0.72-4.12,2.16c-1.15,1.44-1.73,3.16-1.73,5.16v22.06c0,2,0.58,3.74,1.73,5.21
		c1.15,1.47,2.53,2.21,4.12,2.21c1.64,0,3.04-0.73,4.19-2.21c1.15-1.47,1.73-3.21,1.73-5.21V86.05z"/>
	<path class="st21" d="M270,71.31v-7.32h11.77v7.32H270z M270,130.16V78.72h11.77v51.44H270z"/>
	<path class="st21" d="M299.4,137.48c0.28,4.94,2.23,7.41,5.85,7.41h5.85c1.64,0,3.04-0.72,4.19-2.16c1.15-1.44,1.73-3.19,1.73-5.25
		v-14.65c-0.47,4.88-2.44,7.32-5.92,7.32h-5.85c-3.2,0-5.96-1.44-8.28-4.32c-2.33-2.88-3.49-6.35-3.49-10.41v-36.7h11.77v36.7
		c0,2,0.58,3.74,1.73,5.21c1.15,1.47,2.53,2.21,4.12,2.21c1.64,0,3.04-0.73,4.19-2.21c1.15-1.47,1.73-3.21,1.73-5.21v-36.7h11.7
		v58.76c0,4-1.15,7.46-3.45,10.37c-2.3,2.91-5.05,4.37-8.25,4.37h-11.77c-6.91,0-10.83-4.91-11.77-14.73H299.4z"/>
	<path class="st21" d="M364.05,100.78v-7.41c0-2-0.58-3.72-1.73-5.16c-1.15-1.44-2.55-2.16-4.19-2.16h-5.85
		c-3.48,0-5.43,2.44-5.85,7.32h-5.92c0.94-9.76,4.86-14.65,11.77-14.65h11.77c3.2,0,5.94,1.44,8.25,4.32
		c2.3,2.88,3.45,6.32,3.45,10.32v36.79h-11.7v-7.32c-0.47,4.88-2.44,7.32-5.92,7.32h-5.85c-3.2,0-5.96-1.44-8.28-4.32
		c-2.33-2.88-3.49-6.35-3.49-10.41c0-4,1.16-7.44,3.49-10.32c2.33-2.88,5.09-4.32,8.28-4.32H364.05z M364.05,108.1h-5.92
		c-1.6,0-2.97,0.72-4.12,2.16c-1.15,1.44-1.73,3.16-1.73,5.16c0,2,0.58,3.74,1.73,5.21c1.15,1.47,2.53,2.21,4.12,2.21
		c1.64,0,3.04-0.73,4.19-2.21c1.15-1.47,1.73-3.21,1.73-5.21V108.1z"/>
	<path class="st21" d="M393.45,63.99h11.7v14.73h5.92v7.32h-5.92v29.38c0,2.41,0.63,4.25,1.9,5.51c1.27,1.27,2.42,1.9,3.45,1.9h0.56
		v7.32h-5.92c-3.2,0-5.95-1.44-8.25-4.32c-2.3-2.88-3.45-6.35-3.45-10.41V86.05h-5.92v-7.32h5.92V63.99z"/>
	<path class="st21" d="M123.09,221.3c-0.47,9.82-4.37,14.73-11.7,14.73H99.61c-3.2,0-5.96-1.44-8.28-4.32
		c-2.33-2.88-3.49-6.35-3.49-10.41v-36.7c0-4,1.14-7.46,3.42-10.37c2.28-2.91,5.06-4.37,8.35-4.37h11.77
		c7.38,0,11.28,4.91,11.7,14.73h-5.85c-0.47-4.94-2.42-7.41-5.85-7.41h-5.92c-1.6,0-2.97,0.72-4.12,2.16
		c-1.15,1.44-1.73,3.19-1.73,5.25v36.7c0,2,0.58,3.74,1.73,5.21c1.15,1.47,2.53,2.21,4.12,2.21h5.92c3.48,0,5.43-2.47,5.85-7.41
		H123.09z"/>
	<path class="st21" d="M158.41,206.65v-7.41c0-2-0.58-3.72-1.73-5.16c-1.15-1.44-2.55-2.16-4.19-2.16h-5.85
		c-3.48,0-5.43,2.44-5.85,7.32h-5.92c0.94-9.76,4.86-14.65,11.77-14.65h11.77c3.2,0,5.94,1.44,8.25,4.32
		c2.3,2.88,3.45,6.32,3.45,10.32v36.79h-11.7v-7.32c-0.47,4.88-2.44,7.32-5.92,7.32h-5.85c-3.2,0-5.96-1.44-8.28-4.32
		c-2.33-2.88-3.49-6.35-3.49-10.41c0-4,1.16-7.44,3.49-10.32c2.33-2.88,5.09-4.32,8.28-4.32H158.41z M158.41,213.97h-5.92
		c-1.6,0-2.97,0.72-4.12,2.16c-1.15,1.44-1.73,3.16-1.73,5.16c0,2,0.58,3.74,1.73,5.21c1.15,1.47,2.53,2.21,4.12,2.21
		c1.64,0,3.04-0.73,4.19-2.21c1.15-1.47,1.73-3.21,1.73-5.21V213.97z"/>
	<path class="st21" d="M187.8,169.86h11.7v14.73h5.92v7.32h-5.92v29.38c0,2.41,0.63,4.25,1.9,5.51c1.27,1.27,2.42,1.9,3.45,1.9h0.56
		v7.32h-5.92c-3.2,0-5.95-1.44-8.25-4.32c-2.3-2.88-3.45-6.35-3.45-10.41v-29.38h-5.92v-7.32h5.92V169.86z"/>
	<path class="st21" d="M87.84,341.9v-66.17h11.77v58.85h17.62v7.32H87.84z"/>
	<path class="st21" d="M140.71,290.47h11.77c3.2,0,5.94,1.44,8.25,4.32c2.3,2.88,3.45,6.32,3.45,10.32v22.06
		c0,4-1.15,7.46-3.45,10.37c-2.3,2.91-5.05,4.37-8.25,4.37h-11.77c-3.2,0-5.96-1.44-8.28-4.32c-2.33-2.88-3.49-6.35-3.49-10.41
		v-22.06c0-4,1.16-7.44,3.49-10.32C134.75,291.91,137.51,290.47,140.71,290.47z M140.71,305.11v22.06c0,2,0.58,3.74,1.73,5.21
		c1.15,1.47,2.53,2.21,4.12,2.21c1.64,0,3.04-0.73,4.19-2.21c1.15-1.47,1.73-3.21,1.73-5.21v-22.06c0-2-0.58-3.72-1.73-5.16
		c-1.15-1.44-2.55-2.16-4.19-2.16c-1.6,0-2.97,0.72-4.12,2.16C141.29,301.39,140.71,303.11,140.71,305.11z"/>
	<path class="st21" d="M199.51,290.47h11.7v26.29c0,6.88-1.96,12.79-5.89,17.73c-3.92,4.94-8.64,7.41-14.13,7.41h-15.23v-51.44
		h11.77v44.11h5.85c1.64,0,3.04-0.73,4.19-2.21c1.15-1.47,1.73-3.21,1.73-5.21V290.47z"/>
	<path class="st21" d="M258.23,319.85h-23.48v7.32c0,2,0.58,3.74,1.73,5.21c1.15,1.47,2.53,2.21,4.12,2.21h5.92
		c3.9,0,5.85-2.47,5.85-7.41h5.85c-0.89,9.82-4.79,14.73-11.7,14.73h-11.77c-3.2,0-5.96-1.44-8.28-4.32
		c-2.33-2.88-3.49-6.35-3.49-10.41v-22.06c0-4,1.16-7.44,3.49-10.32c2.33-2.88,5.09-4.32,8.28-4.32h11.77c3.2,0,5.94,1.44,8.25,4.32
		c2.3,2.88,3.45,6.32,3.45,10.32V319.85z M234.76,312.52h11.77v-7.41c0-2-0.58-3.72-1.73-5.16c-1.15-1.44-2.55-2.16-4.19-2.16
		c-1.6,0-2.97,0.72-4.12,2.16c-1.15,1.44-1.73,3.16-1.73,5.16V312.52z"/>
	<path class="st21" d="M281.78,341.9H270v-51.44h11.77v14.65c0.47-4.88,1.68-8.54,3.63-10.98c1.95-2.44,4.66-3.66,8.14-3.66h5.85
		v14.65h-11.77c-1.6,0-2.97,0.72-4.12,2.16c-1.15,1.44-1.73,3.19-1.73,5.25V341.9z"/>
</g>
<g>
	<path class="st17" d="M537.68,268.7c14.83,9.16,28.75,19.65,39.03,33.4c5.16,6.91,9.47,14.71,16.47,19.83
		c3.89,2.85,8.47,4.76,12.18,7.82c2.54,2.09,4.75,5.26,3.82,8.49c-1.35,4.67-8.01,5.66-12.5,3.93c-4.49-1.73-8.29-5.13-13.11-5.83
		c-2.44-0.36-4.97,0.01-7.45-0.05c-2.64-0.07-5.22-0.62-7.76-1.24c-11.11-2.71-21.79-6.65-32.53-10.45
		C533.54,303.57,534.44,285.03,537.68,268.7z"/>
</g>
<g>
	<path class="st6" d="M509.41,652.41c14.09,2.8,29.24,10.96,43.99,21.63c52.67,38.06,67.44,114.6,77.65,177.44
		c-13.04-12.69-9.95-42.16-38.11-59.19C521.59,749.16,488.38,679.27,509.41,652.41z"/>
</g>
</svg>
